<svg xmlns="http://www.w3.org/2000/svg" width="1220" height="1630" viewBox="0 0 1220 1630">
<rect width="1220" height="1630" fill="#070c14"/>
<line x1="0" y1="0" x2="0" y2="1630" stroke="#0a1520" stroke-width="0.5"/>
<line x1="40" y1="0" x2="40" y2="1630" stroke="#0a1520" stroke-width="0.5"/>
<line x1="80" y1="0" x2="80" y2="1630" stroke="#0a1520" stroke-width="0.5"/>
<line x1="120" y1="0" x2="120" y2="1630" stroke="#0a1520" stroke-width="0.5"/>
<line x1="160" y1="0" x2="160" y2="1630" stroke="#0a1520" stroke-width="0.5"/>
<line x1="200" y1="0" x2="200" y2="1630" stroke="#0a1520" stroke-width="0.5"/>
<line x1="240" y1="0" x2="240" y2="1630" stroke="#0a1520" stroke-width="0.5"/>
<line x1="280" y1="0" x2="280" y2="1630" stroke="#0a1520" stroke-width="0.5"/>
<line x1="320" y1="0" x2="320" y2="1630" stroke="#0a1520" stroke-width="0.5"/>
<line x1="360" y1="0" x2="360" y2="1630" stroke="#0a1520" stroke-width="0.5"/>
<line x1="400" y1="0" x2="400" y2="1630" stroke="#0a1520" stroke-width="0.5"/>
<line x1="440" y1="0" x2="440" y2="1630" stroke="#0a1520" stroke-width="0.5"/>
<line x1="480" y1="0" x2="480" y2="1630" stroke="#0a1520" stroke-width="0.5"/>
<line x1="520" y1="0" x2="520" y2="1630" stroke="#0a1520" stroke-width="0.5"/>
<line x1="560" y1="0" x2="560" y2="1630" stroke="#0a1520" stroke-width="0.5"/>
<line x1="600" y1="0" x2="600" y2="1630" stroke="#0a1520" stroke-width="0.5"/>
<line x1="640" y1="0" x2="640" y2="1630" stroke="#0a1520" stroke-width="0.5"/>
<line x1="680" y1="0" x2="680" y2="1630" stroke="#0a1520" stroke-width="0.5"/>
<line x1="720" y1="0" x2="720" y2="1630" stroke="#0a1520" stroke-width="0.5"/>
<line x1="760" y1="0" x2="760" y2="1630" stroke="#0a1520" stroke-width="0.5"/>
<line x1="800" y1="0" x2="800" y2="1630" stroke="#0a1520" stroke-width="0.5"/>
<line x1="840" y1="0" x2="840" y2="1630" stroke="#0a1520" stroke-width="0.5"/>
<line x1="880" y1="0" x2="880" y2="1630" stroke="#0a1520" stroke-width="0.5"/>
<line x1="920" y1="0" x2="920" y2="1630" stroke="#0a1520" stroke-width="0.5"/>
<line x1="960" y1="0" x2="960" y2="1630" stroke="#0a1520" stroke-width="0.5"/>
<line x1="1000" y1="0" x2="1000" y2="1630" stroke="#0a1520" stroke-width="0.5"/>
<line x1="1040" y1="0" x2="1040" y2="1630" stroke="#0a1520" stroke-width="0.5"/>
<line x1="1080" y1="0" x2="1080" y2="1630" stroke="#0a1520" stroke-width="0.5"/>
<line x1="1120" y1="0" x2="1120" y2="1630" stroke="#0a1520" stroke-width="0.5"/>
<line x1="1160" y1="0" x2="1160" y2="1630" stroke="#0a1520" stroke-width="0.5"/>
<line x1="1200" y1="0" x2="1200" y2="1630" stroke="#0a1520" stroke-width="0.5"/>
<line x1="0" y1="0" x2="1220" y2="0" stroke="#0a1520" stroke-width="0.5"/>
<line x1="0" y1="40" x2="1220" y2="40" stroke="#0a1520" stroke-width="0.5"/>
<line x1="0" y1="80" x2="1220" y2="80" stroke="#0a1520" stroke-width="0.5"/>
<line x1="0" y1="120" x2="1220" y2="120" stroke="#0a1520" stroke-width="0.5"/>
<line x1="0" y1="160" x2="1220" y2="160" stroke="#0a1520" stroke-width="0.5"/>
<line x1="0" y1="200" x2="1220" y2="200" stroke="#0a1520" stroke-width="0.5"/>
<line x1="0" y1="240" x2="1220" y2="240" stroke="#0a1520" stroke-width="0.5"/>
<line x1="0" y1="280" x2="1220" y2="280" stroke="#0a1520" stroke-width="0.5"/>
<line x1="0" y1="320" x2="1220" y2="320" stroke="#0a1520" stroke-width="0.5"/>
<line x1="0" y1="360" x2="1220" y2="360" stroke="#0a1520" stroke-width="0.5"/>
<line x1="0" y1="400" x2="1220" y2="400" stroke="#0a1520" stroke-width="0.5"/>
<line x1="0" y1="440" x2="1220" y2="440" stroke="#0a1520" stroke-width="0.5"/>
<line x1="0" y1="480" x2="1220" y2="480" stroke="#0a1520" stroke-width="0.5"/>
<line x1="0" y1="520" x2="1220" y2="520" stroke="#0a1520" stroke-width="0.5"/>
<line x1="0" y1="560" x2="1220" y2="560" stroke="#0a1520" stroke-width="0.5"/>
<line x1="0" y1="600" x2="1220" y2="600" stroke="#0a1520" stroke-width="0.5"/>
<line x1="0" y1="640" x2="1220" y2="640" stroke="#0a1520" stroke-width="0.5"/>
<line x1="0" y1="680" x2="1220" y2="680" stroke="#0a1520" stroke-width="0.5"/>
<line x1="0" y1="720" x2="1220" y2="720" stroke="#0a1520" stroke-width="0.5"/>
<line x1="0" y1="760" x2="1220" y2="760" stroke="#0a1520" stroke-width="0.5"/>
<line x1="0" y1="800" x2="1220" y2="800" stroke="#0a1520" stroke-width="0.5"/>
<line x1="0" y1="840" x2="1220" y2="840" stroke="#0a1520" stroke-width="0.5"/>
<line x1="0" y1="880" x2="1220" y2="880" stroke="#0a1520" stroke-width="0.5"/>
<line x1="0" y1="920" x2="1220" y2="920" stroke="#0a1520" stroke-width="0.5"/>
<line x1="0" y1="960" x2="1220" y2="960" stroke="#0a1520" stroke-width="0.5"/>
<line x1="0" y1="1000" x2="1220" y2="1000" stroke="#0a1520" stroke-width="0.5"/>
<line x1="0" y1="1040" x2="1220" y2="1040" stroke="#0a1520" stroke-width="0.5"/>
<line x1="0" y1="1080" x2="1220" y2="1080" stroke="#0a1520" stroke-width="0.5"/>
<line x1="0" y1="1120" x2="1220" y2="1120" stroke="#0a1520" stroke-width="0.5"/>
<line x1="0" y1="1160" x2="1220" y2="1160" stroke="#0a1520" stroke-width="0.5"/>
<line x1="0" y1="1200" x2="1220" y2="1200" stroke="#0a1520" stroke-width="0.5"/>
<line x1="0" y1="1240" x2="1220" y2="1240" stroke="#0a1520" stroke-width="0.5"/>
<line x1="0" y1="1280" x2="1220" y2="1280" stroke="#0a1520" stroke-width="0.5"/>
<line x1="0" y1="1320" x2="1220" y2="1320" stroke="#0a1520" stroke-width="0.5"/>
<line x1="0" y1="1360" x2="1220" y2="1360" stroke="#0a1520" stroke-width="0.5"/>
<line x1="0" y1="1400" x2="1220" y2="1400" stroke="#0a1520" stroke-width="0.5"/>
<line x1="0" y1="1440" x2="1220" y2="1440" stroke="#0a1520" stroke-width="0.5"/>
<line x1="0" y1="1480" x2="1220" y2="1480" stroke="#0a1520" stroke-width="0.5"/>
<line x1="0" y1="1520" x2="1220" y2="1520" stroke="#0a1520" stroke-width="0.5"/>
<line x1="0" y1="1560" x2="1220" y2="1560" stroke="#0a1520" stroke-width="0.5"/>
<line x1="0" y1="1600" x2="1220" y2="1600" stroke="#0a1520" stroke-width="0.5"/>

<rect x="0" y="0" width="1220" height="55" fill="#050a12"/>
<rect x="0" y="54" width="1220" height="1" fill="#1a3a55"/>
<text x="30" y="28" fill="#0fd1b5" font-size="20" font-weight="bold" font-family="Courier New,monospace">EVER<tspan fill="#2e5c7a" font-weight="normal">RISE</tspan></text>
<text x="30" y="42" fill="#1a3a55" font-size="9" font-family="Courier New,monospace" letter-spacing="2">MEDICAL SOLUTIONS</text>
<text x="610" y="26" text-anchor="middle" fill="#4a7a9b" font-size="15" font-family="Courier New,monospace" font-weight="500">Diagrama de Classes — Domain Model</text>
<text x="610" y="43" text-anchor="middle" fill="#1a3a55" font-size="9" font-family="Courier New,monospace">Baseline de Implementação — v5.0</text>
<rect x="1140" y="16" width="56" height="20" rx="4" fill="#0fd1b512" stroke="#0fd1b530"/>
<text x="1168" y="30" text-anchor="middle" fill="#0fd1b5" font-size="10" font-family="Courier New,monospace">v5.0</text>

<text x="50" y="130" fill="#1a3a55" font-size="9" font-family="Courier New,monospace" letter-spacing="2">▸ CLASSES DE DOMÍNIO</text>
<rect x="50" y="140" width="250" height="260" rx="7" fill="#08111d" stroke="#1a3a55" stroke-width="1.2"/>
<rect x="50" y="140" width="250" height="28" rx="7" fill="#0c2030" stroke="#1a3a55" stroke-width="1.2"/>
<rect x="50" y="154" width="250" height="14" fill="#0c2030"/>
<text x="175" y="159" text-anchor="middle" fill="#7ab0cc" font-size="12" font-weight="bold" font-family="Courier New,monospace">Clinica</text>
<rect x="50" y="168" width="250" height="16" fill="#091520"/>
<text x="175" y="179" text-anchor="middle" fill="#1e3a55" font-size="8" font-family="Courier New,monospace" letter-spacing="1">— atributos —</text>
<rect x="51" y="184" width="248" height="19" fill="#08111d"/>
<text x="60" y="197" fill="#4a7a9b" font-size="9.5" font-family="Courier New,monospace">+ id: Long</text>
<rect x="51" y="203" width="248" height="19" fill="#0a1520"/>
<text x="60" y="216" fill="#4a7a9b" font-size="9.5" font-family="Courier New,monospace">+ nomeFantasia: String</text>
<rect x="51" y="222" width="248" height="19" fill="#08111d"/>
<text x="60" y="235" fill="#4a7a9b" font-size="9.5" font-family="Courier New,monospace">+ cnpj: String</text>
<rect x="51" y="241" width="248" height="19" fill="#0a1520"/>
<text x="60" y="254" fill="#4a7a9b" font-size="9.5" font-family="Courier New,monospace">+ plano: TipoPlano</text>
<rect x="51" y="260" width="248" height="19" fill="#08111d"/>
<text x="60" y="273" fill="#4a7a9b" font-size="9.5" font-family="Courier New,monospace">+ ativo: Boolean</text>
<rect x="51" y="279" width="248" height="19" fill="#0a1520"/>
<text x="60" y="292" fill="#4a7a9b" font-size="9.5" font-family="Courier New,monospace">+ criadoEm: LocalDateTime</text>
<rect x="51" y="298" width="248" height="19" fill="#08111d"/>
<text x="60" y="311" fill="#4a7a9b" font-size="9.5" font-family="Courier New,monospace">+ desativadoEm: LocalDateTime?</text>
<rect x="50" y="317" width="250" height="16" fill="#091520"/>
<text x="175" y="328" text-anchor="middle" fill="#1e3a55" font-size="8" font-family="Courier New,monospace" letter-spacing="1">— métodos —</text>
<rect x="51" y="333" width="248" height="19" fill="#08111d"/>
<text x="60" y="346" fill="#10b981" font-size="9.5" font-family="Courier New,monospace">+ desativar(): void</text>
<rect x="51" y="352" width="248" height="19" fill="#0a1520"/>
<text x="60" y="365" fill="#10b981" font-size="9.5" font-family="Courier New,monospace">+ podeAdicionarEquipamento(): Boolean</text>
<rect x="51" y="371" width="248" height="19" fill="#08111d"/>
<text x="60" y="384" fill="#10b981" font-size="9.5" font-family="Courier New,monospace">+ podeAdicionarUsuario(): Boolean</text>
<rect x="330" y="140" width="250" height="279" rx="7" fill="#08111d" stroke="#1a3a55" stroke-width="1.2"/>
<rect x="330" y="140" width="250" height="28" rx="7" fill="#0c2030" stroke="#1a3a55" stroke-width="1.2"/>
<rect x="330" y="154" width="250" height="14" fill="#0c2030"/>
<text x="455" y="159" text-anchor="middle" fill="#7ab0cc" font-size="12" font-weight="bold" font-family="Courier New,monospace">Usuario</text>
<rect x="330" y="168" width="250" height="16" fill="#091520"/>
<text x="455" y="179" text-anchor="middle" fill="#1e3a55" font-size="8" font-family="Courier New,monospace" letter-spacing="1">— atributos —</text>
<rect x="331" y="184" width="248" height="19" fill="#08111d"/>
<text x="340" y="197" fill="#4a7a9b" font-size="9.5" font-family="Courier New,monospace">+ id: Long</text>
<rect x="331" y="203" width="248" height="19" fill="#0a1520"/>
<text x="340" y="216" fill="#4a7a9b" font-size="9.5" font-family="Courier New,monospace">+ nome: String</text>
<rect x="331" y="222" width="248" height="19" fill="#08111d"/>
<text x="340" y="235" fill="#4a7a9b" font-size="9.5" font-family="Courier New,monospace">+ email: String</text>
<rect x="331" y="241" width="248" height="19" fill="#0a1520"/>
<text x="340" y="254" fill="#4a7a9b" font-size="9.5" font-family="Courier New,monospace">+ senhaHash: String</text>
<rect x="331" y="260" width="248" height="19" fill="#08111d"/>
<text x="340" y="273" fill="#4a7a9b" font-size="9.5" font-family="Courier New,monospace">+ role: Role</text>
<rect x="331" y="279" width="248" height="19" fill="#0a1520"/>
<text x="340" y="292" fill="#4a7a9b" font-size="9.5" font-family="Courier New,monospace">+ ativo: Boolean</text>
<rect x="331" y="298" width="248" height="19" fill="#08111d"/>
<text x="340" y="311" fill="#4a7a9b" font-size="9.5" font-family="Courier New,monospace">+ criadoEm: LocalDateTime</text>
<rect x="331" y="317" width="248" height="19" fill="#0a1520"/>
<text x="340" y="330" fill="#4a7a9b" font-size="9.5" font-family="Courier New,monospace">+ deletadoEm: LocalDateTime?</text>
<rect x="330" y="336" width="250" height="16" fill="#091520"/>
<text x="455" y="347" text-anchor="middle" fill="#1e3a55" font-size="8" font-family="Courier New,monospace" letter-spacing="1">— métodos —</text>
<rect x="331" y="352" width="248" height="19" fill="#08111d"/>
<text x="340" y="365" fill="#10b981" font-size="9.5" font-family="Courier New,monospace">+ autenticar(senha): Boolean</text>
<rect x="331" y="371" width="248" height="19" fill="#0a1520"/>
<text x="340" y="384" fill="#10b981" font-size="9.5" font-family="Courier New,monospace">+ podeOperar(): Boolean</text>
<rect x="331" y="390" width="248" height="19" fill="#08111d"/>
<text x="340" y="403" fill="#10b981" font-size="9.5" font-family="Courier New,monospace">+ podeGerenciar(): Boolean</text>
<rect x="610" y="140" width="250" height="184" rx="7" fill="#08111d" stroke="#1a3a55" stroke-width="1.2"/>
<rect x="610" y="140" width="250" height="28" rx="7" fill="#0c2030" stroke="#1a3a55" stroke-width="1.2"/>
<rect x="610" y="154" width="250" height="14" fill="#0c2030"/>
<text x="735" y="159" text-anchor="middle" fill="#7ab0cc" font-size="12" font-weight="bold" font-family="Courier New,monospace">Paciente</text>
<rect x="610" y="168" width="250" height="16" fill="#091520"/>
<text x="735" y="179" text-anchor="middle" fill="#1e3a55" font-size="8" font-family="Courier New,monospace" letter-spacing="1">— atributos —</text>
<rect x="611" y="184" width="248" height="19" fill="#08111d"/>
<text x="620" y="197" fill="#4a7a9b" font-size="9.5" font-family="Courier New,monospace">+ id: Long</text>
<rect x="611" y="203" width="248" height="19" fill="#0a1520"/>
<text x="620" y="216" fill="#4a7a9b" font-size="9.5" font-family="Courier New,monospace">+ nome: String</text>
<rect x="611" y="222" width="248" height="19" fill="#08111d"/>
<text x="620" y="235" fill="#4a7a9b" font-size="9.5" font-family="Courier New,monospace">+ documento: String</text>
<rect x="611" y="241" width="248" height="19" fill="#0a1520"/>
<text x="620" y="254" fill="#4a7a9b" font-size="9.5" font-family="Courier New,monospace">+ criadoEm: LocalDateTime</text>
<rect x="610" y="260" width="250" height="16" fill="#091520"/>
<text x="735" y="271" text-anchor="middle" fill="#1e3a55" font-size="8" font-family="Courier New,monospace" letter-spacing="1">— métodos —</text>
<rect x="611" y="276" width="248" height="19" fill="#08111d"/>
<text x="620" y="289" fill="#10b981" font-size="9.5" font-family="Courier New,monospace">+ historicoAtual(): String</text>
<rect x="611" y="295" width="248" height="19" fill="#0a1520"/>
<text x="620" y="308" fill="#10b981" font-size="9.5" font-family="Courier New,monospace">+ atualizarHistorico(texto,autor): void</text>
<rect x="890" y="140" width="250" height="184" rx="7" fill="#08111d" stroke="#1a3a55" stroke-width="1.2"/>
<rect x="890" y="140" width="250" height="28" rx="7" fill="#0c2030" stroke="#1a3a55" stroke-width="1.2"/>
<rect x="890" y="154" width="250" height="14" fill="#0c2030"/>
<text x="1015" y="159" text-anchor="middle" fill="#7ab0cc" font-size="12" font-weight="bold" font-family="Courier New,monospace">HistoricoClinicoAudit</text>
<rect x="890" y="168" width="250" height="16" fill="#091520"/>
<text x="1015" y="179" text-anchor="middle" fill="#1e3a55" font-size="8" font-family="Courier New,monospace" letter-spacing="1">— atributos —</text>
<rect x="891" y="184" width="248" height="19" fill="#08111d"/>
<text x="900" y="197" fill="#4a7a9b" font-size="9.5" font-family="Courier New,monospace">+ id: Long</text>
<rect x="891" y="203" width="248" height="19" fill="#0a1520"/>
<text x="900" y="216" fill="#4a7a9b" font-size="9.5" font-family="Courier New,monospace">+ idPaciente: Long</text>
<rect x="891" y="222" width="248" height="19" fill="#08111d"/>
<text x="900" y="235" fill="#4a7a9b" font-size="9.5" font-family="Courier New,monospace">+ conteudoAnterior: String?</text>
<rect x="891" y="241" width="248" height="19" fill="#0a1520"/>
<text x="900" y="254" fill="#4a7a9b" font-size="9.5" font-family="Courier New,monospace">+ conteudoNovo: String</text>
<rect x="891" y="260" width="248" height="19" fill="#08111d"/>
<text x="900" y="273" fill="#4a7a9b" font-size="9.5" font-family="Courier New,monospace">+ alteradoEm: LocalDateTime</text>
<rect x="891" y="279" width="248" height="19" fill="#0a1520"/>
<text x="900" y="292" fill="#4a7a9b" font-size="9.5" font-family="Courier New,monospace">+ alteradoPor: Long</text>
<rect x="890" y="298" width="250" height="16" fill="#091520"/>
<text x="1015" y="309" text-anchor="middle" fill="#1e3a55" font-size="8" font-family="Courier New,monospace" letter-spacing="1">— métodos —</text>
<rect x="50" y="520" width="250" height="298" rx="7" fill="#08111d" stroke="#1a3a55" stroke-width="1.2"/>
<rect x="50" y="520" width="250" height="28" rx="7" fill="#0c2030" stroke="#1a3a55" stroke-width="1.2"/>
<rect x="50" y="534" width="250" height="14" fill="#0c2030"/>
<text x="175" y="539" text-anchor="middle" fill="#7ab0cc" font-size="12" font-weight="bold" font-family="Courier New,monospace">Equipamento</text>
<rect x="50" y="548" width="250" height="16" fill="#091520"/>
<text x="175" y="559" text-anchor="middle" fill="#1e3a55" font-size="8" font-family="Courier New,monospace" letter-spacing="1">— atributos —</text>
<rect x="51" y="564" width="248" height="19" fill="#08111d"/>
<text x="60" y="577" fill="#4a7a9b" font-size="9.5" font-family="Courier New,monospace">+ id: Long</text>
<rect x="51" y="583" width="248" height="19" fill="#0a1520"/>
<text x="60" y="596" fill="#4a7a9b" font-size="9.5" font-family="Courier New,monospace">+ macAddress: String</text>
<rect x="51" y="602" width="248" height="19" fill="#08111d"/>
<text x="60" y="615" fill="#4a7a9b" font-size="9.5" font-family="Courier New,monospace">+ modelo: String</text>
<rect x="51" y="621" width="248" height="19" fill="#0a1520"/>
<text x="60" y="634" fill="#4a7a9b" font-size="9.5" font-family="Courier New,monospace">+ numeroSerie: String</text>
<rect x="51" y="640" width="248" height="19" fill="#08111d"/>
<text x="60" y="653" fill="#4a7a9b" font-size="9.5" font-family="Courier New,monospace">+ versaoFirmware: String</text>
<rect x="51" y="659" width="248" height="19" fill="#0a1520"/>
<text x="60" y="672" fill="#4a7a9b" font-size="9.5" font-family="Courier New,monospace">+ statusAtual: StatusEquipamento</text>
<rect x="51" y="678" width="248" height="19" fill="#08111d"/>
<text x="60" y="691" fill="#4a7a9b" font-size="9.5" font-family="Courier New,monospace">+ ultimaConexao: LocalDateTime?</text>
<rect x="50" y="697" width="250" height="16" fill="#091520"/>
<text x="175" y="708" text-anchor="middle" fill="#1e3a55" font-size="8" font-family="Courier New,monospace" letter-spacing="1">— métodos —</text>
<rect x="51" y="713" width="248" height="19" fill="#08111d"/>
<text x="60" y="726" fill="#10b981" font-size="9.5" font-family="Courier New,monospace">+ gerarTokenQr(): String</text>
<rect x="51" y="732" width="248" height="19" fill="#0a1520"/>
<text x="60" y="745" fill="#10b981" font-size="9.5" font-family="Courier New,monospace">+ transicionarEstado(novo): void</text>
<rect x="51" y="751" width="248" height="19" fill="#08111d"/>
<text x="60" y="764" fill="#10b981" font-size="9.5" font-family="Courier New,monospace">+ temSessaoControleAtiva(): Boolean</text>
<rect x="51" y="770" width="248" height="19" fill="#0a1520"/>
<text x="60" y="783" fill="#10b981" font-size="9.5" font-family="Courier New,monospace">+ registrarHeartbeat(): void</text>
<rect x="51" y="789" width="248" height="19" fill="#08111d"/>
<text x="60" y="802" fill="#10b981" font-size="9.5" font-family="Courier New,monospace">+ entrarEmSafetyHold(): void</text>
<rect x="330" y="520" width="250" height="203" rx="7" fill="#08111d" stroke="#1a3a55" stroke-width="1.2"/>
<rect x="330" y="520" width="250" height="28" rx="7" fill="#0c2030" stroke="#1a3a55" stroke-width="1.2"/>
<rect x="330" y="534" width="250" height="14" fill="#0c2030"/>
<text x="455" y="539" text-anchor="middle" fill="#7ab0cc" font-size="12" font-weight="bold" font-family="Courier New,monospace">SessaoControle</text>
<rect x="330" y="548" width="250" height="16" fill="#091520"/>
<text x="455" y="559" text-anchor="middle" fill="#1e3a55" font-size="8" font-family="Courier New,monospace" letter-spacing="1">— atributos —</text>
<rect x="331" y="564" width="248" height="19" fill="#08111d"/>
<text x="340" y="577" fill="#4a7a9b" font-size="9.5" font-family="Courier New,monospace">+ id: Long</text>
<rect x="331" y="583" width="248" height="19" fill="#0a1520"/>
<text x="340" y="596" fill="#4a7a9b" font-size="9.5" font-family="Courier New,monospace">+ tokenHash: String</text>
<rect x="331" y="602" width="248" height="19" fill="#08111d"/>
<text x="340" y="615" fill="#4a7a9b" font-size="9.5" font-family="Courier New,monospace">+ iniciadaEm: LocalDateTime</text>
<rect x="331" y="621" width="248" height="19" fill="#0a1520"/>
<text x="340" y="634" fill="#4a7a9b" font-size="9.5" font-family="Courier New,monospace">+ encerradaEm: LocalDateTime?</text>
<rect x="331" y="640" width="248" height="19" fill="#08111d"/>
<text x="340" y="653" fill="#4a7a9b" font-size="9.5" font-family="Courier New,monospace">+ motivoEncerramento: String?</text>
<rect x="330" y="659" width="250" height="16" fill="#091520"/>
<text x="455" y="670" text-anchor="middle" fill="#1e3a55" font-size="8" font-family="Courier New,monospace" letter-spacing="1">— métodos —</text>
<rect x="331" y="675" width="248" height="19" fill="#08111d"/>
<text x="340" y="688" fill="#10b981" font-size="9.5" font-family="Courier New,monospace">+ estaAtiva(): Boolean</text>
<rect x="331" y="694" width="248" height="19" fill="#0a1520"/>
<text x="340" y="707" fill="#10b981" font-size="9.5" font-family="Courier New,monospace">+ encerrar(motivo): void</text>
<rect x="610" y="520" width="250" height="260" rx="7" fill="#08111d" stroke="#1a3a55" stroke-width="1.2"/>
<rect x="610" y="520" width="250" height="28" rx="7" fill="#0c2030" stroke="#1a3a55" stroke-width="1.2"/>
<rect x="610" y="534" width="250" height="14" fill="#0c2030"/>
<text x="735" y="539" text-anchor="middle" fill="#7ab0cc" font-size="12" font-weight="bold" font-family="Courier New,monospace">SessaoFisioterapia</text>
<rect x="610" y="548" width="250" height="16" fill="#091520"/>
<text x="735" y="559" text-anchor="middle" fill="#1e3a55" font-size="8" font-family="Courier New,monospace" letter-spacing="1">— atributos —</text>
<rect x="611" y="564" width="248" height="19" fill="#08111d"/>
<text x="620" y="577" fill="#4a7a9b" font-size="9.5" font-family="Courier New,monospace">+ id: Long</text>
<rect x="611" y="583" width="248" height="19" fill="#0a1520"/>
<text x="620" y="596" fill="#4a7a9b" font-size="9.5" font-family="Courier New,monospace">+ dataInicio: LocalDateTime</text>
<rect x="611" y="602" width="248" height="19" fill="#08111d"/>
<text x="620" y="615" fill="#4a7a9b" font-size="9.5" font-family="Courier New,monospace">+ dataFim: LocalDateTime?</text>
<rect x="611" y="621" width="248" height="19" fill="#0a1520"/>
<text x="620" y="634" fill="#4a7a9b" font-size="9.5" font-family="Courier New,monospace">+ status: StatusSessao</text>
<rect x="611" y="640" width="248" height="19" fill="#08111d"/>
<text x="620" y="653" fill="#4a7a9b" font-size="9.5" font-family="Courier New,monospace">+ distanciaMetros: BigDecimal</text>
<rect x="611" y="659" width="248" height="19" fill="#0a1520"/>
<text x="620" y="672" fill="#4a7a9b" font-size="9.5" font-family="Courier New,monospace">+ observacoes: String?</text>
<rect x="610" y="678" width="250" height="16" fill="#091520"/>
<text x="735" y="689" text-anchor="middle" fill="#1e3a55" font-size="8" font-family="Courier New,monospace" letter-spacing="1">— métodos —</text>
<rect x="611" y="694" width="248" height="19" fill="#08111d"/>
<text x="620" y="707" fill="#10b981" font-size="9.5" font-family="Courier New,monospace">+ encerrar(): void</text>
<rect x="611" y="713" width="248" height="19" fill="#0a1520"/>
<text x="620" y="726" fill="#10b981" font-size="9.5" font-family="Courier New,monospace">+ encerrarPorInterrupcao(): void</text>
<rect x="611" y="732" width="248" height="19" fill="#08111d"/>
<text x="620" y="745" fill="#10b981" font-size="9.5" font-family="Courier New,monospace">+ estaAtiva(): Boolean</text>
<rect x="611" y="751" width="248" height="19" fill="#0a1520"/>
<text x="620" y="764" fill="#10b981" font-size="9.5" font-family="Courier New,monospace">+ computarIndicadores(tel): void</text>
<rect x="890" y="520" width="250" height="222" rx="7" fill="#08111d" stroke="#1a3a55" stroke-width="1.2"/>
<rect x="890" y="520" width="250" height="28" rx="7" fill="#0c2030" stroke="#1a3a55" stroke-width="1.2"/>
<rect x="890" y="534" width="250" height="14" fill="#0c2030"/>
<text x="1015" y="539" text-anchor="middle" fill="#7ab0cc" font-size="12" font-weight="bold" font-family="Courier New,monospace">Alerta</text>
<rect x="890" y="548" width="250" height="16" fill="#091520"/>
<text x="1015" y="559" text-anchor="middle" fill="#1e3a55" font-size="8" font-family="Courier New,monospace" letter-spacing="1">— atributos —</text>
<rect x="891" y="564" width="248" height="19" fill="#08111d"/>
<text x="900" y="577" fill="#4a7a9b" font-size="9.5" font-family="Courier New,monospace">+ id: Long</text>
<rect x="891" y="583" width="248" height="19" fill="#0a1520"/>
<text x="900" y="596" fill="#4a7a9b" font-size="9.5" font-family="Courier New,monospace">+ tipo: TipoAlerta</text>
<rect x="891" y="602" width="248" height="19" fill="#08111d"/>
<text x="900" y="615" fill="#4a7a9b" font-size="9.5" font-family="Courier New,monospace">+ descricao: String?</text>
<rect x="891" y="621" width="248" height="19" fill="#0a1520"/>
<text x="900" y="634" fill="#4a7a9b" font-size="9.5" font-family="Courier New,monospace">+ geradoEm: LocalDateTime</text>
<rect x="891" y="640" width="248" height="19" fill="#08111d"/>
<text x="900" y="653" fill="#4a7a9b" font-size="9.5" font-family="Courier New,monospace">+ reconhecido: Boolean</text>
<rect x="891" y="659" width="248" height="19" fill="#0a1520"/>
<text x="900" y="672" fill="#4a7a9b" font-size="9.5" font-family="Courier New,monospace">+ reconhecidoEm: LocalDateTime?</text>
<rect x="891" y="678" width="248" height="19" fill="#08111d"/>
<text x="900" y="691" fill="#4a7a9b" font-size="9.5" font-family="Courier New,monospace">+ reconhecidoPor: Long?</text>
<rect x="890" y="697" width="250" height="16" fill="#091520"/>
<text x="1015" y="708" text-anchor="middle" fill="#1e3a55" font-size="8" font-family="Courier New,monospace" letter-spacing="1">— métodos —</text>
<rect x="891" y="713" width="248" height="19" fill="#08111d"/>
<text x="900" y="726" fill="#10b981" font-size="9.5" font-family="Courier New,monospace">+ reconhecer(operador): void</text>
<rect x="50" y="900" width="250" height="127" rx="7" fill="#08111d" stroke="#1a3a55" stroke-width="1.2"/>
<rect x="50" y="900" width="250" height="28" rx="7" fill="#0c2030" stroke="#1a3a55" stroke-width="1.2"/>
<rect x="50" y="914" width="250" height="14" fill="#0c2030"/>
<text x="175" y="919" text-anchor="middle" fill="#7ab0cc" font-size="12" font-weight="bold" font-family="Courier New,monospace">ChatSessao</text>
<rect x="50" y="928" width="250" height="16" fill="#091520"/>
<text x="175" y="939" text-anchor="middle" fill="#1e3a55" font-size="8" font-family="Courier New,monospace" letter-spacing="1">— atributos —</text>
<rect x="51" y="944" width="248" height="19" fill="#08111d"/>
<text x="60" y="957" fill="#4a7a9b" font-size="9.5" font-family="Courier New,monospace">+ id: Long</text>
<rect x="51" y="963" width="248" height="19" fill="#0a1520"/>
<text x="60" y="976" fill="#4a7a9b" font-size="9.5" font-family="Courier New,monospace">+ criadaEm: LocalDateTime</text>
<rect x="51" y="982" width="248" height="19" fill="#08111d"/>
<text x="60" y="995" fill="#4a7a9b" font-size="9.5" font-family="Courier New,monospace">+ atualizadaEm: LocalDateTime</text>
<rect x="50" y="1001" width="250" height="16" fill="#091520"/>
<text x="175" y="1012" text-anchor="middle" fill="#1e3a55" font-size="8" font-family="Courier New,monospace" letter-spacing="1">— métodos —</text>
<rect x="330" y="900" width="250" height="146" rx="7" fill="#08111d" stroke="#1a3a55" stroke-width="1.2"/>
<rect x="330" y="900" width="250" height="28" rx="7" fill="#0c2030" stroke="#1a3a55" stroke-width="1.2"/>
<rect x="330" y="914" width="250" height="14" fill="#0c2030"/>
<text x="455" y="919" text-anchor="middle" fill="#7ab0cc" font-size="12" font-weight="bold" font-family="Courier New,monospace">ChatMensagem</text>
<rect x="330" y="928" width="250" height="16" fill="#091520"/>
<text x="455" y="939" text-anchor="middle" fill="#1e3a55" font-size="8" font-family="Courier New,monospace" letter-spacing="1">— atributos —</text>
<rect x="331" y="944" width="248" height="19" fill="#08111d"/>
<text x="340" y="957" fill="#4a7a9b" font-size="9.5" font-family="Courier New,monospace">+ id: Long</text>
<rect x="331" y="963" width="248" height="19" fill="#0a1520"/>
<text x="340" y="976" fill="#4a7a9b" font-size="9.5" font-family="Courier New,monospace">+ remetente: String</text>
<rect x="331" y="982" width="248" height="19" fill="#08111d"/>
<text x="340" y="995" fill="#4a7a9b" font-size="9.5" font-family="Courier New,monospace">+ conteudo: String</text>
<rect x="331" y="1001" width="248" height="19" fill="#0a1520"/>
<text x="340" y="1014" fill="#4a7a9b" font-size="9.5" font-family="Courier New,monospace">+ enviadaEm: LocalDateTime</text>
<rect x="330" y="1020" width="250" height="16" fill="#091520"/>
<text x="455" y="1031" text-anchor="middle" fill="#1e3a55" font-size="8" font-family="Courier New,monospace" letter-spacing="1">— métodos —</text>
<rect x="610" y="900" width="250" height="219" rx="7" fill="#08111d" stroke="#1a3a55" stroke-width="1.2"/>
<rect x="610" y="900" width="250" height="28" rx="7" fill="#0c2030" stroke="#1a3a55" stroke-width="1.2"/>
<rect x="610" y="914" width="250" height="14" fill="#0c2030"/>
<text x="735" y="914" text-anchor="middle" fill="#2e5c7a" font-size="8.5" font-style="italic" font-family="Courier New,monospace">«ValueObject»</text>
<text x="735" y="926" text-anchor="middle" fill="#7ab0cc" font-size="12" font-weight="bold" font-family="Courier New,monospace">TokenDesconto</text>
<rect x="610" y="928" width="250" height="16" fill="#091520"/>
<text x="735" y="939" text-anchor="middle" fill="#1e3a55" font-size="8" font-family="Courier New,monospace" letter-spacing="1">— atributos —</text>
<rect x="611" y="944" width="248" height="19" fill="#08111d"/>
<text x="620" y="957" fill="#4a7a9b" font-size="9.5" font-family="Courier New,monospace">+ jti: String</text>
<rect x="611" y="963" width="248" height="19" fill="#0a1520"/>
<text x="620" y="976" fill="#4a7a9b" font-size="9.5" font-family="Courier New,monospace">+ idUsuario: Long</text>
<rect x="611" y="982" width="248" height="19" fill="#08111d"/>
<text x="620" y="995" fill="#4a7a9b" font-size="9.5" font-family="Courier New,monospace">+ percentualDesconto: Integer</text>
<rect x="611" y="1001" width="248" height="19" fill="#0a1520"/>
<text x="620" y="1014" fill="#4a7a9b" font-size="9.5" font-family="Courier New,monospace">+ emitidoEm: LocalDateTime</text>
<rect x="611" y="1020" width="248" height="19" fill="#08111d"/>
<text x="620" y="1033" fill="#4a7a9b" font-size="9.5" font-family="Courier New,monospace">+ expiraEm: LocalDateTime</text>
<rect x="610" y="1039" width="250" height="16" fill="#091520"/>
<text x="735" y="1050" text-anchor="middle" fill="#1e3a55" font-size="8" font-family="Courier New,monospace" letter-spacing="1">— métodos —</text>
<rect x="611" y="1055" width="248" height="19" fill="#08111d"/>
<text x="620" y="1068" fill="#10b981" font-size="9.5" font-family="Courier New,monospace">+ assinar(secret): String</text>
<rect x="611" y="1074" width="248" height="19" fill="#0a1520"/>
<text x="620" y="1087" fill="#10b981" font-size="9.5" font-family="Courier New,monospace">+ validar(jwt,secret): TokenDesconto</text>
<text x="50" y="1300" fill="#1a3a55" font-size="9" font-family="Courier New,monospace" letter-spacing="2">▸ ENUMERAÇÕES</text>
<line x1="50" y1="1270" x2="1170" y2="1270" stroke="#1a3a55" stroke-width="0.8" stroke-dasharray="6,4"/>
<rect x="50" y="1310" width="250" height="149" rx="7" fill="#08111d" stroke="#f59e0b40" stroke-width="1.2"/>
<rect x="50" y="1310" width="250" height="28" rx="7" fill="#1a1200" stroke="#f59e0b40" stroke-width="1.2"/>
<rect x="50" y="1324" width="250" height="14" fill="#1a1200"/>
<text x="175" y="1323" text-anchor="middle" fill="#92400e" font-size="8.5" font-style="italic" font-family="Courier New,monospace">«enumeration»</text>
<text x="175" y="1336" text-anchor="middle" fill="#f59e0b" font-size="12" font-weight="bold" font-family="Courier New,monospace">Role</text>
<rect x="50" y="1338" width="250" height="16" fill="#091520"/>
<text x="175" y="1349" text-anchor="middle" fill="#1e3a55" font-size="8" font-family="Courier New,monospace" letter-spacing="1">— valores —</text>
<rect x="51" y="1354" width="248" height="19" fill="#08111d"/>
<text x="175" y="1367" text-anchor="middle" fill="#f59e0b" font-size="9.5" font-family="Courier New,monospace">SUPER_ADMIN</text>
<rect x="51" y="1373" width="248" height="19" fill="#0a1520"/>
<text x="175" y="1386" text-anchor="middle" fill="#f59e0b" font-size="9.5" font-family="Courier New,monospace">ADMIN</text>
<rect x="51" y="1392" width="248" height="19" fill="#08111d"/>
<text x="175" y="1405" text-anchor="middle" fill="#f59e0b" font-size="9.5" font-family="Courier New,monospace">OPERADOR</text>
<rect x="51" y="1411" width="248" height="19" fill="#0a1520"/>
<text x="175" y="1424" text-anchor="middle" fill="#f59e0b" font-size="9.5" font-family="Courier New,monospace">FAMILIA</text>
<rect x="51" y="1430" width="248" height="19" fill="#08111d"/>
<text x="175" y="1443" text-anchor="middle" fill="#f59e0b" font-size="9.5" font-family="Courier New,monospace">VISITANTE</text>
<rect x="330" y="1310" width="250" height="206" rx="7" fill="#08111d" stroke="#f59e0b40" stroke-width="1.2"/>
<rect x="330" y="1310" width="250" height="28" rx="7" fill="#1a1200" stroke="#f59e0b40" stroke-width="1.2"/>
<rect x="330" y="1324" width="250" height="14" fill="#1a1200"/>
<text x="455" y="1323" text-anchor="middle" fill="#92400e" font-size="8.5" font-style="italic" font-family="Courier New,monospace">«enumeration»</text>
<text x="455" y="1336" text-anchor="middle" fill="#f59e0b" font-size="12" font-weight="bold" font-family="Courier New,monospace">StatusEquipamento</text>
<rect x="330" y="1338" width="250" height="16" fill="#091520"/>
<text x="455" y="1349" text-anchor="middle" fill="#1e3a55" font-size="8" font-family="Courier New,monospace" letter-spacing="1">— valores —</text>
<rect x="331" y="1354" width="248" height="19" fill="#08111d"/>
<text x="455" y="1367" text-anchor="middle" fill="#f59e0b" font-size="9.5" font-family="Courier New,monospace">DESLIGADO</text>
<rect x="331" y="1373" width="248" height="19" fill="#0a1520"/>
<text x="455" y="1386" text-anchor="middle" fill="#f59e0b" font-size="9.5" font-family="Courier New,monospace">PRONTO</text>
<rect x="331" y="1392" width="248" height="19" fill="#08111d"/>
<text x="455" y="1405" text-anchor="middle" fill="#f59e0b" font-size="9.5" font-family="Courier New,monospace">EM_CONTROLE</text>
<rect x="331" y="1411" width="248" height="19" fill="#0a1520"/>
<text x="455" y="1424" text-anchor="middle" fill="#f59e0b" font-size="9.5" font-family="Courier New,monospace">EM_SESSAO</text>
<rect x="331" y="1430" width="248" height="19" fill="#08111d"/>
<text x="455" y="1443" text-anchor="middle" fill="#f59e0b" font-size="9.5" font-family="Courier New,monospace">PAUSADO</text>
<rect x="331" y="1449" width="248" height="19" fill="#0a1520"/>
<text x="455" y="1462" text-anchor="middle" fill="#f59e0b" font-size="9.5" font-family="Courier New,monospace">SAFETY_HOLD</text>
<rect x="331" y="1468" width="248" height="19" fill="#08111d"/>
<text x="455" y="1481" text-anchor="middle" fill="#f59e0b" font-size="9.5" font-family="Courier New,monospace">ERRO</text>
<rect x="331" y="1487" width="248" height="19" fill="#0a1520"/>
<text x="455" y="1500" text-anchor="middle" fill="#f59e0b" font-size="9.5" font-family="Courier New,monospace">EMERGENCIA</text>
<rect x="610" y="1310" width="250" height="130" rx="7" fill="#08111d" stroke="#f59e0b40" stroke-width="1.2"/>
<rect x="610" y="1310" width="250" height="28" rx="7" fill="#1a1200" stroke="#f59e0b40" stroke-width="1.2"/>
<rect x="610" y="1324" width="250" height="14" fill="#1a1200"/>
<text x="735" y="1323" text-anchor="middle" fill="#92400e" font-size="8.5" font-style="italic" font-family="Courier New,monospace">«enumeration»</text>
<text x="735" y="1336" text-anchor="middle" fill="#f59e0b" font-size="12" font-weight="bold" font-family="Courier New,monospace">TipoAlerta</text>
<rect x="610" y="1338" width="250" height="16" fill="#091520"/>
<text x="735" y="1349" text-anchor="middle" fill="#1e3a55" font-size="8" font-family="Courier New,monospace" letter-spacing="1">— valores —</text>
<rect x="611" y="1354" width="248" height="19" fill="#08111d"/>
<text x="735" y="1367" text-anchor="middle" fill="#f59e0b" font-size="9.5" font-family="Courier New,monospace">SOBRECARGA</text>
<rect x="611" y="1373" width="248" height="19" fill="#0a1520"/>
<text x="735" y="1386" text-anchor="middle" fill="#f59e0b" font-size="9.5" font-family="Courier New,monospace">OBSTACULO</text>
<rect x="611" y="1392" width="248" height="19" fill="#08111d"/>
<text x="735" y="1405" text-anchor="middle" fill="#f59e0b" font-size="9.5" font-family="Courier New,monospace">CONEXAO</text>
<rect x="611" y="1411" width="248" height="19" fill="#0a1520"/>
<text x="735" y="1424" text-anchor="middle" fill="#f59e0b" font-size="9.5" font-family="Courier New,monospace">BATERIA</text>
<rect x="890" y="1310" width="250" height="111" rx="7" fill="#08111d" stroke="#f59e0b40" stroke-width="1.2"/>
<rect x="890" y="1310" width="250" height="28" rx="7" fill="#1a1200" stroke="#f59e0b40" stroke-width="1.2"/>
<rect x="890" y="1324" width="250" height="14" fill="#1a1200"/>
<text x="1015" y="1323" text-anchor="middle" fill="#92400e" font-size="8.5" font-style="italic" font-family="Courier New,monospace">«enumeration»</text>
<text x="1015" y="1336" text-anchor="middle" fill="#f59e0b" font-size="12" font-weight="bold" font-family="Courier New,monospace">StatusSessao</text>
<rect x="890" y="1338" width="250" height="16" fill="#091520"/>
<text x="1015" y="1349" text-anchor="middle" fill="#1e3a55" font-size="8" font-family="Courier New,monospace" letter-spacing="1">— valores —</text>
<rect x="891" y="1354" width="248" height="19" fill="#08111d"/>
<text x="1015" y="1367" text-anchor="middle" fill="#f59e0b" font-size="9.5" font-family="Courier New,monospace">ATIVA</text>
<rect x="891" y="1373" width="248" height="19" fill="#0a1520"/>
<text x="1015" y="1386" text-anchor="middle" fill="#f59e0b" font-size="9.5" font-family="Courier New,monospace">ENCERRADA</text>
<rect x="891" y="1392" width="248" height="19" fill="#08111d"/>
<text x="1015" y="1405" text-anchor="middle" fill="#f59e0b" font-size="9.5" font-family="Courier New,monospace">INTERRUPTED</text>

<rect x="0" y="1582" width="1220" height="48" fill="#050a12"/>
<rect x="0" y="1582" width="1220" height="1" fill="#1a3a55"/>
<text x="30" y="1606" fill="#2e5c7a" font-size="9.5" font-family="Courier New,monospace">+ atributo   # atributo protegido   - privado</text>
<text x="300" y="1606" fill="#10b981" font-size="9.5" font-family="Courier New,monospace">+ método()</text>
<text x="400" y="1606" fill="#f59e0b" font-size="9.5" font-family="Courier New,monospace">ENUM value</text>
<text x="1200" y="1606" text-anchor="end" fill="#0fd1b530" font-size="9" font-family="Courier New,monospace">EverRise Medical Solutions — Classes v5.0</text>

</svg>