<svg xmlns="http://www.w3.org/2000/svg" width="1440" height="1240" viewBox="0 0 1440 1240">
<defs>
  <filter id="glow"><feGaussianBlur stdDeviation="3" result="blur"/><feMerge><feMergeNode in="blur"/><feMergeNode in="SourceGraphic"/></feMerge></filter>
</defs>
<rect width="1440" height="1240" fill="#070c14"/>
<!-- grid bg lines -->

<line x1="0" y1="0" x2="0" y2="1240" stroke="#0a1520" stroke-width="0.5"/>
<line x1="40" y1="0" x2="40" y2="1240" stroke="#0a1520" stroke-width="0.5"/>
<line x1="80" y1="0" x2="80" y2="1240" stroke="#0a1520" stroke-width="0.5"/>
<line x1="120" y1="0" x2="120" y2="1240" stroke="#0a1520" stroke-width="0.5"/>
<line x1="160" y1="0" x2="160" y2="1240" stroke="#0a1520" stroke-width="0.5"/>
<line x1="200" y1="0" x2="200" y2="1240" stroke="#0a1520" stroke-width="0.5"/>
<line x1="240" y1="0" x2="240" y2="1240" stroke="#0a1520" stroke-width="0.5"/>
<line x1="280" y1="0" x2="280" y2="1240" stroke="#0a1520" stroke-width="0.5"/>
<line x1="320" y1="0" x2="320" y2="1240" stroke="#0a1520" stroke-width="0.5"/>
<line x1="360" y1="0" x2="360" y2="1240" stroke="#0a1520" stroke-width="0.5"/>
<line x1="400" y1="0" x2="400" y2="1240" stroke="#0a1520" stroke-width="0.5"/>
<line x1="440" y1="0" x2="440" y2="1240" stroke="#0a1520" stroke-width="0.5"/>
<line x1="480" y1="0" x2="480" y2="1240" stroke="#0a1520" stroke-width="0.5"/>
<line x1="520" y1="0" x2="520" y2="1240" stroke="#0a1520" stroke-width="0.5"/>
<line x1="560" y1="0" x2="560" y2="1240" stroke="#0a1520" stroke-width="0.5"/>
<line x1="600" y1="0" x2="600" y2="1240" stroke="#0a1520" stroke-width="0.5"/>
<line x1="640" y1="0" x2="640" y2="1240" stroke="#0a1520" stroke-width="0.5"/>
<line x1="680" y1="0" x2="680" y2="1240" stroke="#0a1520" stroke-width="0.5"/>
<line x1="720" y1="0" x2="720" y2="1240" stroke="#0a1520" stroke-width="0.5"/>
<line x1="760" y1="0" x2="760" y2="1240" stroke="#0a1520" stroke-width="0.5"/>
<line x1="800" y1="0" x2="800" y2="1240" stroke="#0a1520" stroke-width="0.5"/>
<line x1="840" y1="0" x2="840" y2="1240" stroke="#0a1520" stroke-width="0.5"/>
<line x1="880" y1="0" x2="880" y2="1240" stroke="#0a1520" stroke-width="0.5"/>
<line x1="920" y1="0" x2="920" y2="1240" stroke="#0a1520" stroke-width="0.5"/>
<line x1="960" y1="0" x2="960" y2="1240" stroke="#0a1520" stroke-width="0.5"/>
<line x1="1000" y1="0" x2="1000" y2="1240" stroke="#0a1520" stroke-width="0.5"/>
<line x1="1040" y1="0" x2="1040" y2="1240" stroke="#0a1520" stroke-width="0.5"/>
<line x1="1080" y1="0" x2="1080" y2="1240" stroke="#0a1520" stroke-width="0.5"/>
<line x1="1120" y1="0" x2="1120" y2="1240" stroke="#0a1520" stroke-width="0.5"/>
<line x1="1160" y1="0" x2="1160" y2="1240" stroke="#0a1520" stroke-width="0.5"/>
<line x1="1200" y1="0" x2="1200" y2="1240" stroke="#0a1520" stroke-width="0.5"/>
<line x1="1240" y1="0" x2="1240" y2="1240" stroke="#0a1520" stroke-width="0.5"/>
<line x1="1280" y1="0" x2="1280" y2="1240" stroke="#0a1520" stroke-width="0.5"/>
<line x1="1320" y1="0" x2="1320" y2="1240" stroke="#0a1520" stroke-width="0.5"/>
<line x1="1360" y1="0" x2="1360" y2="1240" stroke="#0a1520" stroke-width="0.5"/>
<line x1="1400" y1="0" x2="1400" y2="1240" stroke="#0a1520" stroke-width="0.5"/>
<line x1="0" y1="0" x2="1440" y2="0" stroke="#0a1520" stroke-width="0.5"/>
<line x1="0" y1="40" x2="1440" y2="40" stroke="#0a1520" stroke-width="0.5"/>
<line x1="0" y1="80" x2="1440" y2="80" stroke="#0a1520" stroke-width="0.5"/>
<line x1="0" y1="120" x2="1440" y2="120" stroke="#0a1520" stroke-width="0.5"/>
<line x1="0" y1="160" x2="1440" y2="160" stroke="#0a1520" stroke-width="0.5"/>
<line x1="0" y1="200" x2="1440" y2="200" stroke="#0a1520" stroke-width="0.5"/>
<line x1="0" y1="240" x2="1440" y2="240" stroke="#0a1520" stroke-width="0.5"/>
<line x1="0" y1="280" x2="1440" y2="280" stroke="#0a1520" stroke-width="0.5"/>
<line x1="0" y1="320" x2="1440" y2="320" stroke="#0a1520" stroke-width="0.5"/>
<line x1="0" y1="360" x2="1440" y2="360" stroke="#0a1520" stroke-width="0.5"/>
<line x1="0" y1="400" x2="1440" y2="400" stroke="#0a1520" stroke-width="0.5"/>
<line x1="0" y1="440" x2="1440" y2="440" stroke="#0a1520" stroke-width="0.5"/>
<line x1="0" y1="480" x2="1440" y2="480" stroke="#0a1520" stroke-width="0.5"/>
<line x1="0" y1="520" x2="1440" y2="520" stroke="#0a1520" stroke-width="0.5"/>
<line x1="0" y1="560" x2="1440" y2="560" stroke="#0a1520" stroke-width="0.5"/>
<line x1="0" y1="600" x2="1440" y2="600" stroke="#0a1520" stroke-width="0.5"/>
<line x1="0" y1="640" x2="1440" y2="640" stroke="#0a1520" stroke-width="0.5"/>
<line x1="0" y1="680" x2="1440" y2="680" stroke="#0a1520" stroke-width="0.5"/>
<line x1="0" y1="720" x2="1440" y2="720" stroke="#0a1520" stroke-width="0.5"/>
<line x1="0" y1="760" x2="1440" y2="760" stroke="#0a1520" stroke-width="0.5"/>
<line x1="0" y1="800" x2="1440" y2="800" stroke="#0a1520" stroke-width="0.5"/>
<line x1="0" y1="840" x2="1440" y2="840" stroke="#0a1520" stroke-width="0.5"/>
<line x1="0" y1="880" x2="1440" y2="880" stroke="#0a1520" stroke-width="0.5"/>
<line x1="0" y1="920" x2="1440" y2="920" stroke="#0a1520" stroke-width="0.5"/>
<line x1="0" y1="960" x2="1440" y2="960" stroke="#0a1520" stroke-width="0.5"/>
<line x1="0" y1="1000" x2="1440" y2="1000" stroke="#0a1520" stroke-width="0.5"/>
<line x1="0" y1="1040" x2="1440" y2="1040" stroke="#0a1520" stroke-width="0.5"/>
<line x1="0" y1="1080" x2="1440" y2="1080" stroke="#0a1520" stroke-width="0.5"/>
<line x1="0" y1="1120" x2="1440" y2="1120" stroke="#0a1520" stroke-width="0.5"/>
<line x1="0" y1="1160" x2="1440" y2="1160" stroke="#0a1520" stroke-width="0.5"/>
<line x1="0" y1="1200" x2="1440" y2="1200" stroke="#0a1520" stroke-width="0.5"/>

<rect x="0" y="0" width="1440" height="55" fill="#050a12"/>
<rect x="0" y="54" width="1440" height="1" fill="#1a3a55"/>
<text x="30" y="28" fill="#0fd1b5" font-size="20" font-weight="bold" font-family="Courier New,monospace">EVER<tspan fill="#2e5c7a" font-weight="normal">RISE</tspan></text>
<text x="30" y="42" fill="#1a3a55" font-size="9" font-family="Courier New,monospace" letter-spacing="2">MEDICAL SOLUTIONS</text>
<text x="720" y="26" text-anchor="middle" fill="#4a7a9b" font-size="15" font-family="Courier New,monospace" font-weight="500">Modelo Entidade-Relacionamento</text>
<text x="720" y="43" text-anchor="middle" fill="#1a3a55" font-size="9" font-family="Courier New,monospace">Baseline de Implementação — v5.0</text>
<rect x="1360" y="16" width="56" height="20" rx="4" fill="#0fd1b512" stroke="#0fd1b530"/>
<text x="1388" y="30" text-anchor="middle" fill="#0fd1b5" font-size="10" font-family="Courier New,monospace">v5.0</text>

<path d="M 165 278 C 330 278 330 80 495 80" fill="none" stroke="#1a3a55" stroke-width="1.3" />
<text x="330" y="174" text-anchor="middle" fill="#1e3a55" font-size="8.5" font-family="Courier New,monospace" font-style="italic">possui</text>
<path d="M 165 278 C 495 278 495 80 825 80" fill="none" stroke="#1a3a55" stroke-width="1.3" />
<text x="495" y="174" text-anchor="middle" fill="#1e3a55" font-size="8.5" font-family="Courier New,monospace" font-style="italic">atende</text>
<path d="M 270 179 C 217 179 217 420 165 420" fill="none" stroke="#1a3a55" stroke-width="1.3" />
<text x="217" y="294" text-anchor="middle" fill="#1e3a55" font-size="8.5" font-family="Courier New,monospace" font-style="italic">detém</text>
<path d="M 495 322 C 495 322 495 420 495 420" fill="none" stroke="#1a3a55" stroke-width="1.3" />
<text x="495" y="366" text-anchor="middle" fill="#1e3a55" font-size="8.5" font-family="Courier New,monospace" font-style="italic">inicia</text>
<path d="M 270 530 C 330 530 330 519 390 519" fill="none" stroke="#1a3a55" stroke-width="1.3" />
<text x="330" y="519" text-anchor="middle" fill="#1e3a55" font-size="8.5" font-family="Courier New,monospace" font-style="italic">alvo de</text>
<path d="M 600 519 C 660 519 660 541 720 541" fill="none" stroke="#1a3a55" stroke-width="1.3" />
<text x="660" y="525" text-anchor="middle" fill="#1e3a55" font-size="8.5" font-family="Courier New,monospace" font-style="italic">contém</text>
<path d="M 825 234 C 825 234 825 420 825 420" fill="none" stroke="#1a3a55" stroke-width="1.3" />
<text x="825" y="322" text-anchor="middle" fill="#1e3a55" font-size="8.5" font-family="Courier New,monospace" font-style="italic">participa</text>
<path d="M 165 640 C 495 640 495 420 825 420" fill="none" stroke="#1a3a55" stroke-width="1.3" />
<text x="495" y="525" text-anchor="middle" fill="#1e3a55" font-size="8.5" font-family="Courier New,monospace" font-style="italic">utilizado em</text>
<path d="M 270 530 C 660 530 660 541 1050 541" fill="none" stroke="#1a3a55" stroke-width="1.3" />
<text x="660" y="530" text-anchor="middle" fill="#1e3a55" font-size="8.5" font-family="Courier New,monospace" font-style="italic">gera</text>
<path d="M 930 541 C 990 541 990 541 1050 541" fill="none" stroke="#1a3a55" stroke-width="1.3" />
<text x="990" y="536" text-anchor="middle" fill="#1e3a55" font-size="8.5" font-family="Courier New,monospace" font-style="italic">registra</text>
<path d="M 825 234 C 990 234 990 80 1155 80" fill="none" stroke="#1a3a55" stroke-width="1.3" />
<text x="990" y="152" text-anchor="middle" fill="#1e3a55" font-size="8.5" font-family="Courier New,monospace" font-style="italic">auditado em</text>
<path d="M 825 234 C 660 234 660 760 495 760" fill="none" stroke="#1a3a55" stroke-width="1.3" />
<text x="660" y="492" text-anchor="middle" fill="#1e3a55" font-size="8.5" font-family="Courier New,monospace" font-style="italic">contexto de</text>
<path d="M 495 322 C 495 322 495 760 495 760" fill="none" stroke="#1a3a55" stroke-width="1.3" />
<text x="495" y="536" text-anchor="middle" fill="#1e3a55" font-size="8.5" font-family="Courier New,monospace" font-style="italic">participante</text>
<path d="M 600 837 C 660 837 660 837 720 837" fill="none" stroke="#1a3a55" stroke-width="1.3" />
<text x="660" y="832" text-anchor="middle" fill="#1e3a55" font-size="8.5" font-family="Courier New,monospace" font-style="italic">contém</text>
<rect x="60" y="80" width="210" height="198" rx="7" fill="#08111d" stroke="#1a3a55" stroke-width="1.2"/>
<rect x="60" y="80" width="210" height="30" rx="7" fill="#0c2030" stroke="#1a3a55" stroke-width="1.2"/>
<rect x="60" y="94" width="210" height="16" fill="#0c2030"/>
<text x="165" y="99" text-anchor="middle" fill="#7ab0cc" font-size="12" font-weight="bold" font-family="Courier New,monospace">clinica</text>
<rect x="61" y="110" width="208" height="22" fill="#08111d"/>
<text x="70" y="124" fill="#0fd1b5" font-size="9.5" font-family="Courier New,monospace">⬥ id_clinica</text>
<text x="262" y="124" text-anchor="end" fill="#1e3a55" font-size="8.5" font-family="Courier New,monospace">BIGINT</text>
<rect x="61" y="132" width="208" height="22" fill="#0a1520"/>
<text x="70" y="146" fill="#6a9ab5" font-size="9.5" font-family="Courier New,monospace">  nome_fantasia</text>
<text x="262" y="146" text-anchor="end" fill="#1e3a55" font-size="8.5" font-family="Courier New,monospace">VARCHAR(100)</text>
<rect x="61" y="154" width="208" height="22" fill="#08111d"/>
<text x="70" y="168" fill="#6a9ab5" font-size="9.5" font-family="Courier New,monospace">  cnpj</text>
<text x="262" y="168" text-anchor="end" fill="#1e3a55" font-size="8.5" font-family="Courier New,monospace">CHAR(18) UNIQUE</text>
<rect x="61" y="176" width="208" height="22" fill="#0a1520"/>
<text x="70" y="190" fill="#6a9ab5" font-size="9.5" font-family="Courier New,monospace">  plano</text>
<text x="262" y="190" text-anchor="end" fill="#1e3a55" font-size="8.5" font-family="Courier New,monospace">ENUM</text>
<rect x="61" y="198" width="208" height="22" fill="#08111d"/>
<text x="70" y="212" fill="#6a9ab5" font-size="9.5" font-family="Courier New,monospace">  ativo</text>
<text x="262" y="212" text-anchor="end" fill="#1e3a55" font-size="8.5" font-family="Courier New,monospace">BOOLEAN</text>
<rect x="61" y="220" width="208" height="22" fill="#0a1520"/>
<text x="70" y="234" fill="#6a9ab5" font-size="9.5" font-family="Courier New,monospace">  criado_em</text>
<text x="262" y="234" text-anchor="end" fill="#1e3a55" font-size="8.5" font-family="Courier New,monospace">TIMESTAMP</text>
<rect x="61" y="242" width="208" height="22" fill="#08111d"/>
<text x="70" y="256" fill="#6a9ab5" font-size="9.5" font-family="Courier New,monospace">  desativado_em</text>
<text x="262" y="256" text-anchor="end" fill="#1e3a55" font-size="8.5" font-family="Courier New,monospace">TIMESTAMP NULL</text>
<rect x="60" y="271" width="210" height="7" rx="0" ry="0" fill="#08111d"/>
<rect x="60" y="268" width="210" height="10" rx="7" fill="none" stroke="#1a3a55" stroke-width="1.2"/>
<rect x="390" y="80" width="210" height="242" rx="7" fill="#08111d" stroke="#1a3a55" stroke-width="1.2"/>
<rect x="390" y="80" width="210" height="30" rx="7" fill="#0c2030" stroke="#1a3a55" stroke-width="1.2"/>
<rect x="390" y="94" width="210" height="16" fill="#0c2030"/>
<text x="495" y="99" text-anchor="middle" fill="#7ab0cc" font-size="12" font-weight="bold" font-family="Courier New,monospace">usuario</text>
<rect x="391" y="110" width="208" height="22" fill="#08111d"/>
<text x="400" y="124" fill="#0fd1b5" font-size="9.5" font-family="Courier New,monospace">⬥ id_usuario</text>
<text x="592" y="124" text-anchor="end" fill="#1e3a55" font-size="8.5" font-family="Courier New,monospace">BIGINT</text>
<rect x="391" y="132" width="208" height="22" fill="#0a1520"/>
<text x="400" y="146" fill="#6a9ab5" font-size="9.5" font-family="Courier New,monospace">  nome</text>
<text x="592" y="146" text-anchor="end" fill="#1e3a55" font-size="8.5" font-family="Courier New,monospace">VARCHAR(100)</text>
<rect x="391" y="154" width="208" height="22" fill="#08111d"/>
<text x="400" y="168" fill="#6a9ab5" font-size="9.5" font-family="Courier New,monospace">  email</text>
<text x="592" y="168" text-anchor="end" fill="#1e3a55" font-size="8.5" font-family="Courier New,monospace">VARCHAR(150) UNIQUE</text>
<rect x="391" y="176" width="208" height="22" fill="#0a1520"/>
<text x="400" y="190" fill="#6a9ab5" font-size="9.5" font-family="Courier New,monospace">  senha_hash</text>
<text x="592" y="190" text-anchor="end" fill="#1e3a55" font-size="8.5" font-family="Courier New,monospace">VARCHAR(255)</text>
<rect x="391" y="198" width="208" height="22" fill="#08111d"/>
<text x="400" y="212" fill="#6a9ab5" font-size="9.5" font-family="Courier New,monospace">  role</text>
<text x="592" y="212" text-anchor="end" fill="#1e3a55" font-size="8.5" font-family="Courier New,monospace">ENUM</text>
<rect x="391" y="220" width="208" height="22" fill="#0a1520"/>
<text x="400" y="234" fill="#3b82f6" font-size="9.5" font-family="Courier New,monospace">◈ id_clinica</text>
<text x="592" y="234" text-anchor="end" fill="#1e3a55" font-size="8.5" font-family="Courier New,monospace">BIGINT NULL</text>
<rect x="391" y="242" width="208" height="22" fill="#08111d"/>
<text x="400" y="256" fill="#6a9ab5" font-size="9.5" font-family="Courier New,monospace">  ativo</text>
<text x="592" y="256" text-anchor="end" fill="#1e3a55" font-size="8.5" font-family="Courier New,monospace">BOOLEAN</text>
<rect x="391" y="264" width="208" height="22" fill="#0a1520"/>
<text x="400" y="278" fill="#6a9ab5" font-size="9.5" font-family="Courier New,monospace">  criado_em</text>
<text x="592" y="278" text-anchor="end" fill="#1e3a55" font-size="8.5" font-family="Courier New,monospace">TIMESTAMP</text>
<rect x="391" y="286" width="208" height="22" fill="#08111d"/>
<text x="400" y="300" fill="#6a9ab5" font-size="9.5" font-family="Courier New,monospace">  deletado_em</text>
<text x="592" y="300" text-anchor="end" fill="#1e3a55" font-size="8.5" font-family="Courier New,monospace">TIMESTAMP NULL</text>
<rect x="390" y="315" width="210" height="7" rx="0" ry="0" fill="#08111d"/>
<rect x="390" y="312" width="210" height="10" rx="7" fill="none" stroke="#1a3a55" stroke-width="1.2"/>
<rect x="720" y="80" width="210" height="154" rx="7" fill="#08111d" stroke="#1a3a55" stroke-width="1.2"/>
<rect x="720" y="80" width="210" height="30" rx="7" fill="#0c2030" stroke="#1a3a55" stroke-width="1.2"/>
<rect x="720" y="94" width="210" height="16" fill="#0c2030"/>
<text x="825" y="99" text-anchor="middle" fill="#7ab0cc" font-size="12" font-weight="bold" font-family="Courier New,monospace">paciente</text>
<rect x="721" y="110" width="208" height="22" fill="#08111d"/>
<text x="730" y="124" fill="#0fd1b5" font-size="9.5" font-family="Courier New,monospace">⬥ id_paciente</text>
<text x="922" y="124" text-anchor="end" fill="#1e3a55" font-size="8.5" font-family="Courier New,monospace">BIGINT</text>
<rect x="721" y="132" width="208" height="22" fill="#0a1520"/>
<text x="730" y="146" fill="#6a9ab5" font-size="9.5" font-family="Courier New,monospace">  nome</text>
<text x="922" y="146" text-anchor="end" fill="#1e3a55" font-size="8.5" font-family="Courier New,monospace">VARCHAR(100)</text>
<rect x="721" y="154" width="208" height="22" fill="#08111d"/>
<text x="730" y="168" fill="#6a9ab5" font-size="9.5" font-family="Courier New,monospace">  documento</text>
<text x="922" y="168" text-anchor="end" fill="#1e3a55" font-size="8.5" font-family="Courier New,monospace">VARCHAR(20)</text>
<rect x="721" y="176" width="208" height="22" fill="#0a1520"/>
<text x="730" y="190" fill="#3b82f6" font-size="9.5" font-family="Courier New,monospace">◈ id_clinica</text>
<text x="922" y="190" text-anchor="end" fill="#1e3a55" font-size="8.5" font-family="Courier New,monospace">BIGINT</text>
<rect x="721" y="198" width="208" height="22" fill="#08111d"/>
<text x="730" y="212" fill="#6a9ab5" font-size="9.5" font-family="Courier New,monospace">  criado_em</text>
<text x="922" y="212" text-anchor="end" fill="#1e3a55" font-size="8.5" font-family="Courier New,monospace">TIMESTAMP</text>
<rect x="720" y="227" width="210" height="7" rx="0" ry="0" fill="#08111d"/>
<rect x="720" y="224" width="210" height="10" rx="7" fill="none" stroke="#1a3a55" stroke-width="1.2"/>
<rect x="1050" y="80" width="210" height="176" rx="7" fill="#08111d" stroke="#1a3a55" stroke-width="1.2"/>
<rect x="1050" y="80" width="210" height="30" rx="7" fill="#0c2030" stroke="#1a3a55" stroke-width="1.2"/>
<rect x="1050" y="94" width="210" height="16" fill="#0c2030"/>
<text x="1155" y="99" text-anchor="middle" fill="#7ab0cc" font-size="12" font-weight="bold" font-family="Courier New,monospace">historico_clinico_audit</text>
<rect x="1051" y="110" width="208" height="22" fill="#08111d"/>
<text x="1060" y="124" fill="#0fd1b5" font-size="9.5" font-family="Courier New,monospace">⬥ id_audit</text>
<text x="1252" y="124" text-anchor="end" fill="#1e3a55" font-size="8.5" font-family="Courier New,monospace">BIGINT</text>
<rect x="1051" y="132" width="208" height="22" fill="#0a1520"/>
<text x="1060" y="146" fill="#3b82f6" font-size="9.5" font-family="Courier New,monospace">◈ id_paciente</text>
<text x="1252" y="146" text-anchor="end" fill="#1e3a55" font-size="8.5" font-family="Courier New,monospace">BIGINT</text>
<rect x="1051" y="154" width="208" height="22" fill="#08111d"/>
<text x="1060" y="168" fill="#6a9ab5" font-size="9.5" font-family="Courier New,monospace">  conteudo_anterior</text>
<text x="1252" y="168" text-anchor="end" fill="#1e3a55" font-size="8.5" font-family="Courier New,monospace">TEXT NULL</text>
<rect x="1051" y="176" width="208" height="22" fill="#0a1520"/>
<text x="1060" y="190" fill="#6a9ab5" font-size="9.5" font-family="Courier New,monospace">  conteudo_novo</text>
<text x="1252" y="190" text-anchor="end" fill="#1e3a55" font-size="8.5" font-family="Courier New,monospace">TEXT</text>
<rect x="1051" y="198" width="208" height="22" fill="#08111d"/>
<text x="1060" y="212" fill="#6a9ab5" font-size="9.5" font-family="Courier New,monospace">  alterado_em</text>
<text x="1252" y="212" text-anchor="end" fill="#1e3a55" font-size="8.5" font-family="Courier New,monospace">TIMESTAMP</text>
<rect x="1051" y="220" width="208" height="22" fill="#0a1520"/>
<text x="1060" y="234" fill="#3b82f6" font-size="9.5" font-family="Courier New,monospace">◈ alterado_por</text>
<text x="1252" y="234" text-anchor="end" fill="#1e3a55" font-size="8.5" font-family="Courier New,monospace">BIGINT</text>
<rect x="1050" y="249" width="210" height="7" rx="0" ry="0" fill="#0a1520"/>
<rect x="1050" y="246" width="210" height="10" rx="7" fill="none" stroke="#1a3a55" stroke-width="1.2"/>
<rect x="60" y="420" width="210" height="220" rx="7" fill="#08111d" stroke="#1a3a55" stroke-width="1.2"/>
<rect x="60" y="420" width="210" height="30" rx="7" fill="#0c2030" stroke="#1a3a55" stroke-width="1.2"/>
<rect x="60" y="434" width="210" height="16" fill="#0c2030"/>
<text x="165" y="439" text-anchor="middle" fill="#7ab0cc" font-size="12" font-weight="bold" font-family="Courier New,monospace">equipamento</text>
<rect x="61" y="450" width="208" height="22" fill="#08111d"/>
<text x="70" y="464" fill="#0fd1b5" font-size="9.5" font-family="Courier New,monospace">⬥ id_equipamento</text>
<text x="262" y="464" text-anchor="end" fill="#1e3a55" font-size="8.5" font-family="Courier New,monospace">BIGINT</text>
<rect x="61" y="472" width="208" height="22" fill="#0a1520"/>
<text x="70" y="486" fill="#6a9ab5" font-size="9.5" font-family="Courier New,monospace">  mac_address</text>
<text x="262" y="486" text-anchor="end" fill="#1e3a55" font-size="8.5" font-family="Courier New,monospace">VARCHAR(17) UNIQUE</text>
<rect x="61" y="494" width="208" height="22" fill="#08111d"/>
<text x="70" y="508" fill="#6a9ab5" font-size="9.5" font-family="Courier New,monospace">  modelo</text>
<text x="262" y="508" text-anchor="end" fill="#1e3a55" font-size="8.5" font-family="Courier New,monospace">VARCHAR(100)</text>
<rect x="61" y="516" width="208" height="22" fill="#0a1520"/>
<text x="70" y="530" fill="#6a9ab5" font-size="9.5" font-family="Courier New,monospace">  numero_serie</text>
<text x="262" y="530" text-anchor="end" fill="#1e3a55" font-size="8.5" font-family="Courier New,monospace">VARCHAR(50) UNIQUE</text>
<rect x="61" y="538" width="208" height="22" fill="#08111d"/>
<text x="70" y="552" fill="#6a9ab5" font-size="9.5" font-family="Courier New,monospace">  versao_firmware</text>
<text x="262" y="552" text-anchor="end" fill="#1e3a55" font-size="8.5" font-family="Courier New,monospace">VARCHAR(20)</text>
<rect x="61" y="560" width="208" height="22" fill="#0a1520"/>
<text x="70" y="574" fill="#6a9ab5" font-size="9.5" font-family="Courier New,monospace">  status_atual</text>
<text x="262" y="574" text-anchor="end" fill="#1e3a55" font-size="8.5" font-family="Courier New,monospace">ENUM</text>
<rect x="61" y="582" width="208" height="22" fill="#08111d"/>
<text x="70" y="596" fill="#6a9ab5" font-size="9.5" font-family="Courier New,monospace">  ultima_conexao</text>
<text x="262" y="596" text-anchor="end" fill="#1e3a55" font-size="8.5" font-family="Courier New,monospace">TIMESTAMP NULL</text>
<rect x="61" y="604" width="208" height="22" fill="#0a1520"/>
<text x="70" y="618" fill="#3b82f6" font-size="9.5" font-family="Courier New,monospace">◈ id_clinica</text>
<text x="262" y="618" text-anchor="end" fill="#1e3a55" font-size="8.5" font-family="Courier New,monospace">BIGINT</text>
<rect x="60" y="633" width="210" height="7" rx="0" ry="0" fill="#0a1520"/>
<rect x="60" y="630" width="210" height="10" rx="7" fill="none" stroke="#1a3a55" stroke-width="1.2"/>
<rect x="390" y="420" width="210" height="198" rx="7" fill="#08111d" stroke="#1a3a55" stroke-width="1.2"/>
<rect x="390" y="420" width="210" height="30" rx="7" fill="#0c2030" stroke="#1a3a55" stroke-width="1.2"/>
<rect x="390" y="434" width="210" height="16" fill="#0c2030"/>
<text x="495" y="439" text-anchor="middle" fill="#7ab0cc" font-size="12" font-weight="bold" font-family="Courier New,monospace">sessao_controle</text>
<rect x="391" y="450" width="208" height="22" fill="#08111d"/>
<text x="400" y="464" fill="#0fd1b5" font-size="9.5" font-family="Courier New,monospace">⬥ id_sessao_controle</text>
<text x="592" y="464" text-anchor="end" fill="#1e3a55" font-size="8.5" font-family="Courier New,monospace">BIGINT</text>
<rect x="391" y="472" width="208" height="22" fill="#0a1520"/>
<text x="400" y="486" fill="#6a9ab5" font-size="9.5" font-family="Courier New,monospace">  token_hash</text>
<text x="592" y="486" text-anchor="end" fill="#1e3a55" font-size="8.5" font-family="Courier New,monospace">VARCHAR(128)</text>
<rect x="391" y="494" width="208" height="22" fill="#08111d"/>
<text x="400" y="508" fill="#6a9ab5" font-size="9.5" font-family="Courier New,monospace">  iniciada_em</text>
<text x="592" y="508" text-anchor="end" fill="#1e3a55" font-size="8.5" font-family="Courier New,monospace">TIMESTAMP</text>
<rect x="391" y="516" width="208" height="22" fill="#0a1520"/>
<text x="400" y="530" fill="#6a9ab5" font-size="9.5" font-family="Courier New,monospace">  encerrada_em</text>
<text x="592" y="530" text-anchor="end" fill="#1e3a55" font-size="8.5" font-family="Courier New,monospace">TIMESTAMP NULL</text>
<rect x="391" y="538" width="208" height="22" fill="#08111d"/>
<text x="400" y="552" fill="#6a9ab5" font-size="9.5" font-family="Courier New,monospace">  motivo_encerramento</text>
<text x="592" y="552" text-anchor="end" fill="#1e3a55" font-size="8.5" font-family="Courier New,monospace">ENUM NULL</text>
<rect x="391" y="560" width="208" height="22" fill="#0a1520"/>
<text x="400" y="574" fill="#3b82f6" font-size="9.5" font-family="Courier New,monospace">◈ id_usuario</text>
<text x="592" y="574" text-anchor="end" fill="#1e3a55" font-size="8.5" font-family="Courier New,monospace">BIGINT</text>
<rect x="391" y="582" width="208" height="22" fill="#08111d"/>
<text x="400" y="596" fill="#3b82f6" font-size="9.5" font-family="Courier New,monospace">◈ id_equipamento</text>
<text x="592" y="596" text-anchor="end" fill="#1e3a55" font-size="8.5" font-family="Courier New,monospace">BIGINT</text>
<rect x="390" y="611" width="210" height="7" rx="0" ry="0" fill="#08111d"/>
<rect x="390" y="608" width="210" height="10" rx="7" fill="none" stroke="#1a3a55" stroke-width="1.2"/>
<rect x="720" y="420" width="210" height="242" rx="7" fill="#08111d" stroke="#1a3a55" stroke-width="1.2"/>
<rect x="720" y="420" width="210" height="30" rx="7" fill="#0c2030" stroke="#1a3a55" stroke-width="1.2"/>
<rect x="720" y="434" width="210" height="16" fill="#0c2030"/>
<text x="825" y="439" text-anchor="middle" fill="#7ab0cc" font-size="12" font-weight="bold" font-family="Courier New,monospace">sessao_fisioterapia</text>
<rect x="721" y="450" width="208" height="22" fill="#08111d"/>
<text x="730" y="464" fill="#0fd1b5" font-size="9.5" font-family="Courier New,monospace">⬥ id_sessao</text>
<text x="922" y="464" text-anchor="end" fill="#1e3a55" font-size="8.5" font-family="Courier New,monospace">BIGINT</text>
<rect x="721" y="472" width="208" height="22" fill="#0a1520"/>
<text x="730" y="486" fill="#6a9ab5" font-size="9.5" font-family="Courier New,monospace">  data_inicio</text>
<text x="922" y="486" text-anchor="end" fill="#1e3a55" font-size="8.5" font-family="Courier New,monospace">TIMESTAMP</text>
<rect x="721" y="494" width="208" height="22" fill="#08111d"/>
<text x="730" y="508" fill="#6a9ab5" font-size="9.5" font-family="Courier New,monospace">  data_fim</text>
<text x="922" y="508" text-anchor="end" fill="#1e3a55" font-size="8.5" font-family="Courier New,monospace">TIMESTAMP NULL</text>
<rect x="721" y="516" width="208" height="22" fill="#0a1520"/>
<text x="730" y="530" fill="#6a9ab5" font-size="9.5" font-family="Courier New,monospace">  status</text>
<text x="922" y="530" text-anchor="end" fill="#1e3a55" font-size="8.5" font-family="Courier New,monospace">ENUM</text>
<rect x="721" y="538" width="208" height="22" fill="#08111d"/>
<text x="730" y="552" fill="#6a9ab5" font-size="9.5" font-family="Courier New,monospace">  distancia_metros</text>
<text x="922" y="552" text-anchor="end" fill="#1e3a55" font-size="8.5" font-family="Courier New,monospace">DECIMAL(8,2)</text>
<rect x="721" y="560" width="208" height="22" fill="#0a1520"/>
<text x="730" y="574" fill="#6a9ab5" font-size="9.5" font-family="Courier New,monospace">  observacoes</text>
<text x="922" y="574" text-anchor="end" fill="#1e3a55" font-size="8.5" font-family="Courier New,monospace">TEXT NULL</text>
<rect x="721" y="582" width="208" height="22" fill="#08111d"/>
<text x="730" y="596" fill="#3b82f6" font-size="9.5" font-family="Courier New,monospace">◈ id_sessao_controle</text>
<text x="922" y="596" text-anchor="end" fill="#1e3a55" font-size="8.5" font-family="Courier New,monospace">BIGINT</text>
<rect x="721" y="604" width="208" height="22" fill="#0a1520"/>
<text x="730" y="618" fill="#3b82f6" font-size="9.5" font-family="Courier New,monospace">◈ id_paciente</text>
<text x="922" y="618" text-anchor="end" fill="#1e3a55" font-size="8.5" font-family="Courier New,monospace">BIGINT NULL</text>
<rect x="721" y="626" width="208" height="22" fill="#08111d"/>
<text x="730" y="640" fill="#3b82f6" font-size="9.5" font-family="Courier New,monospace">◈ id_equipamento</text>
<text x="922" y="640" text-anchor="end" fill="#1e3a55" font-size="8.5" font-family="Courier New,monospace">BIGINT</text>
<rect x="720" y="655" width="210" height="7" rx="0" ry="0" fill="#08111d"/>
<rect x="720" y="652" width="210" height="10" rx="7" fill="none" stroke="#1a3a55" stroke-width="1.2"/>
<rect x="1050" y="420" width="210" height="242" rx="7" fill="#08111d" stroke="#1a3a55" stroke-width="1.2"/>
<rect x="1050" y="420" width="210" height="30" rx="7" fill="#0c2030" stroke="#1a3a55" stroke-width="1.2"/>
<rect x="1050" y="434" width="210" height="16" fill="#0c2030"/>
<text x="1155" y="439" text-anchor="middle" fill="#7ab0cc" font-size="12" font-weight="bold" font-family="Courier New,monospace">alerta</text>
<rect x="1051" y="450" width="208" height="22" fill="#08111d"/>
<text x="1060" y="464" fill="#0fd1b5" font-size="9.5" font-family="Courier New,monospace">⬥ id_alerta</text>
<text x="1252" y="464" text-anchor="end" fill="#1e3a55" font-size="8.5" font-family="Courier New,monospace">BIGINT</text>
<rect x="1051" y="472" width="208" height="22" fill="#0a1520"/>
<text x="1060" y="486" fill="#6a9ab5" font-size="9.5" font-family="Courier New,monospace">  tipo</text>
<text x="1252" y="486" text-anchor="end" fill="#1e3a55" font-size="8.5" font-family="Courier New,monospace">ENUM</text>
<rect x="1051" y="494" width="208" height="22" fill="#08111d"/>
<text x="1060" y="508" fill="#6a9ab5" font-size="9.5" font-family="Courier New,monospace">  descricao</text>
<text x="1252" y="508" text-anchor="end" fill="#1e3a55" font-size="8.5" font-family="Courier New,monospace">VARCHAR(255) NULL</text>
<rect x="1051" y="516" width="208" height="22" fill="#0a1520"/>
<text x="1060" y="530" fill="#6a9ab5" font-size="9.5" font-family="Courier New,monospace">  gerado_em</text>
<text x="1252" y="530" text-anchor="end" fill="#1e3a55" font-size="8.5" font-family="Courier New,monospace">TIMESTAMP</text>
<rect x="1051" y="538" width="208" height="22" fill="#08111d"/>
<text x="1060" y="552" fill="#6a9ab5" font-size="9.5" font-family="Courier New,monospace">  reconhecido</text>
<text x="1252" y="552" text-anchor="end" fill="#1e3a55" font-size="8.5" font-family="Courier New,monospace">BOOLEAN</text>
<rect x="1051" y="560" width="208" height="22" fill="#0a1520"/>
<text x="1060" y="574" fill="#6a9ab5" font-size="9.5" font-family="Courier New,monospace">  reconhecido_em</text>
<text x="1252" y="574" text-anchor="end" fill="#1e3a55" font-size="8.5" font-family="Courier New,monospace">TIMESTAMP NULL</text>
<rect x="1051" y="582" width="208" height="22" fill="#08111d"/>
<text x="1060" y="596" fill="#3b82f6" font-size="9.5" font-family="Courier New,monospace">◈ reconhecido_por</text>
<text x="1252" y="596" text-anchor="end" fill="#1e3a55" font-size="8.5" font-family="Courier New,monospace">BIGINT NULL</text>
<rect x="1051" y="604" width="208" height="22" fill="#0a1520"/>
<text x="1060" y="618" fill="#3b82f6" font-size="9.5" font-family="Courier New,monospace">◈ id_equipamento</text>
<text x="1252" y="618" text-anchor="end" fill="#1e3a55" font-size="8.5" font-family="Courier New,monospace">BIGINT</text>
<rect x="1051" y="626" width="208" height="22" fill="#08111d"/>
<text x="1060" y="640" fill="#3b82f6" font-size="9.5" font-family="Courier New,monospace">◈ id_sessao</text>
<text x="1252" y="640" text-anchor="end" fill="#1e3a55" font-size="8.5" font-family="Courier New,monospace">BIGINT NULL</text>
<rect x="1050" y="655" width="210" height="7" rx="0" ry="0" fill="#08111d"/>
<rect x="1050" y="652" width="210" height="10" rx="7" fill="none" stroke="#1a3a55" stroke-width="1.2"/>
<rect x="390" y="760" width="210" height="154" rx="7" fill="#08111d" stroke="#1a3a55" stroke-width="1.2"/>
<rect x="390" y="760" width="210" height="30" rx="7" fill="#0c2030" stroke="#1a3a55" stroke-width="1.2"/>
<rect x="390" y="774" width="210" height="16" fill="#0c2030"/>
<text x="495" y="779" text-anchor="middle" fill="#7ab0cc" font-size="12" font-weight="bold" font-family="Courier New,monospace">chat_sessao</text>
<rect x="391" y="790" width="208" height="22" fill="#08111d"/>
<text x="400" y="804" fill="#0fd1b5" font-size="9.5" font-family="Courier New,monospace">⬥ id_chat_sessao</text>
<text x="592" y="804" text-anchor="end" fill="#1e3a55" font-size="8.5" font-family="Courier New,monospace">BIGINT</text>
<rect x="391" y="812" width="208" height="22" fill="#0a1520"/>
<text x="400" y="826" fill="#3b82f6" font-size="9.5" font-family="Courier New,monospace">◈ id_paciente</text>
<text x="592" y="826" text-anchor="end" fill="#1e3a55" font-size="8.5" font-family="Courier New,monospace">BIGINT</text>
<rect x="391" y="834" width="208" height="22" fill="#08111d"/>
<text x="400" y="848" fill="#3b82f6" font-size="9.5" font-family="Courier New,monospace">◈ id_usuario</text>
<text x="592" y="848" text-anchor="end" fill="#1e3a55" font-size="8.5" font-family="Courier New,monospace">BIGINT</text>
<rect x="391" y="856" width="208" height="22" fill="#0a1520"/>
<text x="400" y="870" fill="#6a9ab5" font-size="9.5" font-family="Courier New,monospace">  criada_em</text>
<text x="592" y="870" text-anchor="end" fill="#1e3a55" font-size="8.5" font-family="Courier New,monospace">TIMESTAMP</text>
<rect x="391" y="878" width="208" height="22" fill="#08111d"/>
<text x="400" y="892" fill="#6a9ab5" font-size="9.5" font-family="Courier New,monospace">  atualizada_em</text>
<text x="592" y="892" text-anchor="end" fill="#1e3a55" font-size="8.5" font-family="Courier New,monospace">TIMESTAMP</text>
<rect x="390" y="907" width="210" height="7" rx="0" ry="0" fill="#08111d"/>
<rect x="390" y="904" width="210" height="10" rx="7" fill="none" stroke="#1a3a55" stroke-width="1.2"/>
<rect x="720" y="760" width="210" height="154" rx="7" fill="#08111d" stroke="#1a3a55" stroke-width="1.2"/>
<rect x="720" y="760" width="210" height="30" rx="7" fill="#0c2030" stroke="#1a3a55" stroke-width="1.2"/>
<rect x="720" y="774" width="210" height="16" fill="#0c2030"/>
<text x="825" y="779" text-anchor="middle" fill="#7ab0cc" font-size="12" font-weight="bold" font-family="Courier New,monospace">chat_mensagem</text>
<rect x="721" y="790" width="208" height="22" fill="#08111d"/>
<text x="730" y="804" fill="#0fd1b5" font-size="9.5" font-family="Courier New,monospace">⬥ id_mensagem</text>
<text x="922" y="804" text-anchor="end" fill="#1e3a55" font-size="8.5" font-family="Courier New,monospace">BIGINT</text>
<rect x="721" y="812" width="208" height="22" fill="#0a1520"/>
<text x="730" y="826" fill="#3b82f6" font-size="9.5" font-family="Courier New,monospace">◈ id_chat_sessao</text>
<text x="922" y="826" text-anchor="end" fill="#1e3a55" font-size="8.5" font-family="Courier New,monospace">BIGINT</text>
<rect x="721" y="834" width="208" height="22" fill="#08111d"/>
<text x="730" y="848" fill="#6a9ab5" font-size="9.5" font-family="Courier New,monospace">  remetente</text>
<text x="922" y="848" text-anchor="end" fill="#1e3a55" font-size="8.5" font-family="Courier New,monospace">ENUM</text>
<rect x="721" y="856" width="208" height="22" fill="#0a1520"/>
<text x="730" y="870" fill="#6a9ab5" font-size="9.5" font-family="Courier New,monospace">  conteudo</text>
<text x="922" y="870" text-anchor="end" fill="#1e3a55" font-size="8.5" font-family="Courier New,monospace">TEXT</text>
<rect x="721" y="878" width="208" height="22" fill="#08111d"/>
<text x="730" y="892" fill="#6a9ab5" font-size="9.5" font-family="Courier New,monospace">  enviada_em</text>
<text x="922" y="892" text-anchor="end" fill="#1e3a55" font-size="8.5" font-family="Courier New,monospace">TIMESTAMP</text>
<rect x="720" y="907" width="210" height="7" rx="0" ry="0" fill="#08111d"/>
<rect x="720" y="904" width="210" height="10" rx="7" fill="none" stroke="#1a3a55" stroke-width="1.2"/>

<rect x="0" y="1192" width="1440" height="48" fill="#050a12"/>
<rect x="0" y="1192" width="1440" height="1" fill="#1a3a55"/>
<circle cx="40" cy="1212" r="5" fill="#0fd1b5"/>
<text x="52" y="1216" fill="#2e5c7a" font-size="9.5" font-family="Courier New,monospace">PK — Chave Primária</text>
<circle cx="180" cy="1212" r="5" fill="#3b82f6"/>
<text x="192" y="1216" fill="#2e5c7a" font-size="9.5" font-family="Courier New,monospace">FK — Chave Estrangeira</text>
<text x="1420" y="1216" text-anchor="end" fill="#0fd1b530" font-size="9" font-family="Courier New,monospace">EverRise Medical Solutions — MER v5.0</text>

</svg>