<svg xmlns="http://www.w3.org/2000/svg" width="1600" height="1060" viewBox="0 0 1600 1060">
<rect width="1600" height="1060" fill="#070c14"/>
<line x1="0" y1="0" x2="0" y2="1060" stroke="#0a1520" stroke-width="0.4"/>
<line x1="40" y1="0" x2="40" y2="1060" stroke="#0a1520" stroke-width="0.4"/>
<line x1="80" y1="0" x2="80" y2="1060" stroke="#0a1520" stroke-width="0.4"/>
<line x1="120" y1="0" x2="120" y2="1060" stroke="#0a1520" stroke-width="0.4"/>
<line x1="160" y1="0" x2="160" y2="1060" stroke="#0a1520" stroke-width="0.4"/>
<line x1="200" y1="0" x2="200" y2="1060" stroke="#0a1520" stroke-width="0.4"/>
<line x1="240" y1="0" x2="240" y2="1060" stroke="#0a1520" stroke-width="0.4"/>
<line x1="280" y1="0" x2="280" y2="1060" stroke="#0a1520" stroke-width="0.4"/>
<line x1="320" y1="0" x2="320" y2="1060" stroke="#0a1520" stroke-width="0.4"/>
<line x1="360" y1="0" x2="360" y2="1060" stroke="#0a1520" stroke-width="0.4"/>
<line x1="400" y1="0" x2="400" y2="1060" stroke="#0a1520" stroke-width="0.4"/>
<line x1="440" y1="0" x2="440" y2="1060" stroke="#0a1520" stroke-width="0.4"/>
<line x1="480" y1="0" x2="480" y2="1060" stroke="#0a1520" stroke-width="0.4"/>
<line x1="520" y1="0" x2="520" y2="1060" stroke="#0a1520" stroke-width="0.4"/>
<line x1="560" y1="0" x2="560" y2="1060" stroke="#0a1520" stroke-width="0.4"/>
<line x1="600" y1="0" x2="600" y2="1060" stroke="#0a1520" stroke-width="0.4"/>
<line x1="640" y1="0" x2="640" y2="1060" stroke="#0a1520" stroke-width="0.4"/>
<line x1="680" y1="0" x2="680" y2="1060" stroke="#0a1520" stroke-width="0.4"/>
<line x1="720" y1="0" x2="720" y2="1060" stroke="#0a1520" stroke-width="0.4"/>
<line x1="760" y1="0" x2="760" y2="1060" stroke="#0a1520" stroke-width="0.4"/>
<line x1="800" y1="0" x2="800" y2="1060" stroke="#0a1520" stroke-width="0.4"/>
<line x1="840" y1="0" x2="840" y2="1060" stroke="#0a1520" stroke-width="0.4"/>
<line x1="880" y1="0" x2="880" y2="1060" stroke="#0a1520" stroke-width="0.4"/>
<line x1="920" y1="0" x2="920" y2="1060" stroke="#0a1520" stroke-width="0.4"/>
<line x1="960" y1="0" x2="960" y2="1060" stroke="#0a1520" stroke-width="0.4"/>
<line x1="1000" y1="0" x2="1000" y2="1060" stroke="#0a1520" stroke-width="0.4"/>
<line x1="1040" y1="0" x2="1040" y2="1060" stroke="#0a1520" stroke-width="0.4"/>
<line x1="1080" y1="0" x2="1080" y2="1060" stroke="#0a1520" stroke-width="0.4"/>
<line x1="1120" y1="0" x2="1120" y2="1060" stroke="#0a1520" stroke-width="0.4"/>
<line x1="1160" y1="0" x2="1160" y2="1060" stroke="#0a1520" stroke-width="0.4"/>
<line x1="1200" y1="0" x2="1200" y2="1060" stroke="#0a1520" stroke-width="0.4"/>
<line x1="1240" y1="0" x2="1240" y2="1060" stroke="#0a1520" stroke-width="0.4"/>
<line x1="1280" y1="0" x2="1280" y2="1060" stroke="#0a1520" stroke-width="0.4"/>
<line x1="1320" y1="0" x2="1320" y2="1060" stroke="#0a1520" stroke-width="0.4"/>
<line x1="1360" y1="0" x2="1360" y2="1060" stroke="#0a1520" stroke-width="0.4"/>
<line x1="1400" y1="0" x2="1400" y2="1060" stroke="#0a1520" stroke-width="0.4"/>
<line x1="1440" y1="0" x2="1440" y2="1060" stroke="#0a1520" stroke-width="0.4"/>
<line x1="1480" y1="0" x2="1480" y2="1060" stroke="#0a1520" stroke-width="0.4"/>
<line x1="1520" y1="0" x2="1520" y2="1060" stroke="#0a1520" stroke-width="0.4"/>
<line x1="1560" y1="0" x2="1560" y2="1060" stroke="#0a1520" stroke-width="0.4"/>
<line x1="0" y1="0" x2="1600" y2="0" stroke="#0a1520" stroke-width="0.4"/>
<line x1="0" y1="40" x2="1600" y2="40" stroke="#0a1520" stroke-width="0.4"/>
<line x1="0" y1="80" x2="1600" y2="80" stroke="#0a1520" stroke-width="0.4"/>
<line x1="0" y1="120" x2="1600" y2="120" stroke="#0a1520" stroke-width="0.4"/>
<line x1="0" y1="160" x2="1600" y2="160" stroke="#0a1520" stroke-width="0.4"/>
<line x1="0" y1="200" x2="1600" y2="200" stroke="#0a1520" stroke-width="0.4"/>
<line x1="0" y1="240" x2="1600" y2="240" stroke="#0a1520" stroke-width="0.4"/>
<line x1="0" y1="280" x2="1600" y2="280" stroke="#0a1520" stroke-width="0.4"/>
<line x1="0" y1="320" x2="1600" y2="320" stroke="#0a1520" stroke-width="0.4"/>
<line x1="0" y1="360" x2="1600" y2="360" stroke="#0a1520" stroke-width="0.4"/>
<line x1="0" y1="400" x2="1600" y2="400" stroke="#0a1520" stroke-width="0.4"/>
<line x1="0" y1="440" x2="1600" y2="440" stroke="#0a1520" stroke-width="0.4"/>
<line x1="0" y1="480" x2="1600" y2="480" stroke="#0a1520" stroke-width="0.4"/>
<line x1="0" y1="520" x2="1600" y2="520" stroke="#0a1520" stroke-width="0.4"/>
<line x1="0" y1="560" x2="1600" y2="560" stroke="#0a1520" stroke-width="0.4"/>
<line x1="0" y1="600" x2="1600" y2="600" stroke="#0a1520" stroke-width="0.4"/>
<line x1="0" y1="640" x2="1600" y2="640" stroke="#0a1520" stroke-width="0.4"/>
<line x1="0" y1="680" x2="1600" y2="680" stroke="#0a1520" stroke-width="0.4"/>
<line x1="0" y1="720" x2="1600" y2="720" stroke="#0a1520" stroke-width="0.4"/>
<line x1="0" y1="760" x2="1600" y2="760" stroke="#0a1520" stroke-width="0.4"/>
<line x1="0" y1="800" x2="1600" y2="800" stroke="#0a1520" stroke-width="0.4"/>
<line x1="0" y1="840" x2="1600" y2="840" stroke="#0a1520" stroke-width="0.4"/>
<line x1="0" y1="880" x2="1600" y2="880" stroke="#0a1520" stroke-width="0.4"/>
<line x1="0" y1="920" x2="1600" y2="920" stroke="#0a1520" stroke-width="0.4"/>
<line x1="0" y1="960" x2="1600" y2="960" stroke="#0a1520" stroke-width="0.4"/>
<line x1="0" y1="1000" x2="1600" y2="1000" stroke="#0a1520" stroke-width="0.4"/>
<line x1="0" y1="1040" x2="1600" y2="1040" stroke="#0a1520" stroke-width="0.4"/>

<rect x="0" y="0" width="1600" height="52" fill="#050a12"/>
<rect x="0" y="51" width="1600" height="1" fill="#1a3a55"/>
<text x="28" y="27" fill="#0fd1b5" font-size="19" font-weight="bold" font-family="Courier New,monospace">EVER<tspan fill="#2e5c7a" font-weight="normal">RISE</tspan></text>
<text x="28" y="41" fill="#1a3a55" font-size="8.5" font-family="Courier New,monospace" letter-spacing="2">MEDICAL SOLUTIONS</text>
<text x="800" y="25" text-anchor="middle" fill="#4a7a9b" font-size="14" font-family="Courier New,monospace" font-weight="500">Diagrama de Casos de Uso</text>
<text x="800" y="42" text-anchor="middle" fill="#1a3a55" font-size="9" font-family="Courier New,monospace">Baseline de Implementação — v5.0</text>
<rect x="1522" y="15" width="54" height="19" rx="4" fill="#0fd1b512" stroke="#0fd1b530"/>
<text x="1549" y="28" text-anchor="middle" fill="#0fd1b5" font-size="9.5" font-family="Courier New,monospace">v5.0</text>

<rect x="140" y="68" width="1310" height="920" rx="10" fill="#050a12" stroke="#1a3a55" stroke-width="1.2"/>
<rect x="705" y="59" width="180" height="18" fill="#070c14"/>
<text x="795" y="72" text-anchor="middle" fill="#1a3a55" font-size="9" font-family="Courier New,monospace" letter-spacing="2">◈ PLATAFORMA EVERRISE</text>

<rect x="160" y="82" width="300" height="95" rx="6" fill="#07101a" stroke="#0f2035" stroke-width="1" stroke-dasharray="5,3"/>
<text x="168" y="77" fill="#1a3a55" font-size="8" font-family="Courier New,monospace" letter-spacing="1">Autenticação e Conta</text>


<rect x="470" y="82" width="300" height="130" rx="6" fill="#07101a" stroke="#0f2035" stroke-width="1" stroke-dasharray="5,3"/>
<text x="478" y="77" fill="#1a3a55" font-size="8" font-family="Courier New,monospace" letter-spacing="1">Controle de Equipamento</text>


<rect x="780" y="82" width="310" height="160" rx="6" fill="#07101a" stroke="#0f2035" stroke-width="1" stroke-dasharray="5,3"/>
<text x="788" y="77" fill="#1a3a55" font-size="8" font-family="Courier New,monospace" letter-spacing="1">Sessões Clínicas</text>


<rect x="1100" y="82" width="330" height="130" rx="6" fill="#07101a" stroke="#0f2035" stroke-width="1" stroke-dasharray="5,3"/>
<text x="1108" y="77" fill="#1a3a55" font-size="8" font-family="Courier New,monospace" letter-spacing="1">Gestão Clínica</text>


<rect x="160" y="230" width="300" height="100" rx="6" fill="#07101a" stroke="#0f2035" stroke-width="1" stroke-dasharray="5,3"/>
<text x="168" y="225" fill="#1a3a55" font-size="8" font-family="Courier New,monospace" letter-spacing="1">Plataforma</text>


<rect x="470" y="230" width="300" height="100" rx="6" fill="#07101a" stroke="#0f2035" stroke-width="1" stroke-dasharray="5,3"/>
<text x="478" y="225" fill="#1a3a55" font-size="8" font-family="Courier New,monospace" letter-spacing="1">Administração Global</text>


<rect x="160" y="345" width="950" height="95" rx="6" fill="#07101a" stroke="#0f2035" stroke-width="1" stroke-dasharray="5,3"/>
<text x="168" y="340" fill="#1a3a55" font-size="8" font-family="Courier New,monospace" letter-spacing="1">IoT e Inteligência Embarcada</text>


<ellipse cx="310" cy="180" rx="65" ry="13" fill="#050d18" stroke="#0f2035" stroke-width="1.1"/>
<text x="310" y="176" text-anchor="middle" fill="#1e3a55" font-size="8" font-family="Courier New,monospace">UC01</text>
<text x="310" y="187" text-anchor="middle" fill="#3a6a88" font-size="9" font-family="Courier New,monospace">Registrar conta</text>



<ellipse cx="310" cy="208" rx="65" ry="13" fill="#050d18" stroke="#0f2035" stroke-width="1.1"/>
<text x="310" y="204" text-anchor="middle" fill="#1e3a55" font-size="8" font-family="Courier New,monospace">UC02</text>
<text x="310" y="215" text-anchor="middle" fill="#3a6a88" font-size="9" font-family="Courier New,monospace">Autenticar (JWT)</text>



<ellipse cx="310" cy="236" rx="65" ry="13" fill="#050d18" stroke="#0f2035" stroke-width="1.1"/>
<text x="310" y="232" text-anchor="middle" fill="#1e3a55" font-size="8" font-family="Courier New,monospace">UC03</text>
<text x="310" y="243" text-anchor="middle" fill="#3a6a88" font-size="9" font-family="Courier New,monospace">Renovar token</text>
<text x="310" y="261" text-anchor="middle" fill="#1e3a55" font-size="7.5" font-style="italic" font-family="Courier New,monospace">«include» UC02</text>


<ellipse cx="620" cy="180" rx="65" ry="13" fill="#050d18" stroke="#0f2035" stroke-width="1.1"/>
<text x="620" y="176" text-anchor="middle" fill="#1e3a55" font-size="8" font-family="Courier New,monospace">UC10</text>
<text x="620" y="187" text-anchor="middle" fill="#3a6a88" font-size="9" font-family="Courier New,monospace">Parear via QR</text>



<ellipse cx="620" cy="208" rx="65" ry="13" fill="#050d18" stroke="#0f2035" stroke-width="1.1"/>
<text x="620" y="204" text-anchor="middle" fill="#1e3a55" font-size="8" font-family="Courier New,monospace">UC11</text>
<text x="620" y="215" text-anchor="middle" fill="#3a6a88" font-size="9" font-family="Courier New,monospace">Controlar movim.</text>
<text x="620" y="233" text-anchor="middle" fill="#1e3a55" font-size="7.5" font-style="italic" font-family="Courier New,monospace">«include» UC10</text>


<ellipse cx="620" cy="236" rx="65" ry="13" fill="#050d18" stroke="#0f2035" stroke-width="1.1"/>
<text x="620" y="232" text-anchor="middle" fill="#1e3a55" font-size="8" font-family="Courier New,monospace">UC12</text>
<text x="620" y="243" text-anchor="middle" fill="#3a6a88" font-size="9" font-family="Courier New,monospace">Comando de voz</text>
<text x="620" y="261" text-anchor="middle" fill="#1e3a55" font-size="7.5" font-style="italic" font-family="Courier New,monospace">«include» UC10</text>


<ellipse cx="620" cy="264" rx="65" ry="13" fill="#050d18" stroke="#0f2035" stroke-width="1.1"/>
<text x="620" y="260" text-anchor="middle" fill="#1e3a55" font-size="8" font-family="Courier New,monospace">UC13</text>
<text x="620" y="271" text-anchor="middle" fill="#3a6a88" font-size="9" font-family="Courier New,monospace">Acionar emergência</text>



<ellipse cx="620" cy="292" rx="65" ry="13" fill="#050d18" stroke="#0f2035" stroke-width="1.1"/>
<text x="620" y="288" text-anchor="middle" fill="#1e3a55" font-size="8" font-family="Courier New,monospace">UC14</text>
<text x="620" y="299" text-anchor="middle" fill="#3a6a88" font-size="9" font-family="Courier New,monospace">Encerrar sess. controle</text>



<ellipse cx="935" cy="180" rx="65" ry="13" fill="#050d18" stroke="#0f2035" stroke-width="1.1"/>
<text x="935" y="176" text-anchor="middle" fill="#1e3a55" font-size="8" font-family="Courier New,monospace">UC20</text>
<text x="935" y="187" text-anchor="middle" fill="#3a6a88" font-size="9" font-family="Courier New,monospace">Iniciar sessão fisio.</text>
<text x="935" y="205" text-anchor="middle" fill="#1e3a55" font-size="7.5" font-style="italic" font-family="Courier New,monospace">«include» UC10</text>


<ellipse cx="935" cy="208" rx="65" ry="13" fill="#050d18" stroke="#0f2035" stroke-width="1.1"/>
<text x="935" y="204" text-anchor="middle" fill="#1e3a55" font-size="8" font-family="Courier New,monospace">UC21</text>
<text x="935" y="215" text-anchor="middle" fill="#3a6a88" font-size="9" font-family="Courier New,monospace">Encerrar sessão fisio.</text>



<ellipse cx="935" cy="236" rx="65" ry="13" fill="#050d18" stroke="#0f2035" stroke-width="1.1"/>
<text x="935" y="232" text-anchor="middle" fill="#1e3a55" font-size="8" font-family="Courier New,monospace">UC22</text>
<text x="935" y="243" text-anchor="middle" fill="#3a6a88" font-size="9" font-family="Courier New,monospace">Visualizar dashboard</text>



<ellipse cx="935" cy="264" rx="65" ry="13" fill="#050d18" stroke="#0f2035" stroke-width="1.1"/>
<text x="935" y="260" text-anchor="middle" fill="#1e3a55" font-size="8" font-family="Courier New,monospace">UC23</text>
<text x="935" y="271" text-anchor="middle" fill="#3a6a88" font-size="9" font-family="Courier New,monospace">Reconhecer alerta</text>



<ellipse cx="935" cy="292" rx="65" ry="13" fill="#050d18" stroke="#0f2035" stroke-width="1.1"/>
<text x="935" y="288" text-anchor="middle" fill="#1e3a55" font-size="8" font-family="Courier New,monospace">UC24</text>
<text x="935" y="299" text-anchor="middle" fill="#3a6a88" font-size="9" font-family="Courier New,monospace">Visualizar histórico</text>



<ellipse cx="935" cy="320" rx="65" ry="13" fill="#050d18" stroke="#0f2035" stroke-width="1.1"/>
<text x="935" y="316" text-anchor="middle" fill="#1e3a55" font-size="8" font-family="Courier New,monospace">UC25</text>
<text x="935" y="327" text-anchor="middle" fill="#3a6a88" font-size="9" font-family="Courier New,monospace">Timeout automático</text>
<text x="935" y="345" text-anchor="middle" fill="#1e3a55" font-size="7.5" font-style="italic" font-family="Courier New,monospace">«extend» UC21/UC14</text>


<ellipse cx="1265" cy="180" rx="65" ry="13" fill="#050d18" stroke="#0f2035" stroke-width="1.1"/>
<text x="1265" y="176" text-anchor="middle" fill="#1e3a55" font-size="8" font-family="Courier New,monospace">UC30</text>
<text x="1265" y="187" text-anchor="middle" fill="#3a6a88" font-size="9" font-family="Courier New,monospace">Gerenciar equipamentos</text>



<ellipse cx="1265" cy="208" rx="65" ry="13" fill="#050d18" stroke="#0f2035" stroke-width="1.1"/>
<text x="1265" y="204" text-anchor="middle" fill="#1e3a55" font-size="8" font-family="Courier New,monospace">UC31</text>
<text x="1265" y="215" text-anchor="middle" fill="#3a6a88" font-size="9" font-family="Courier New,monospace">Gerenciar usuários</text>



<ellipse cx="1265" cy="236" rx="65" ry="13" fill="#050d18" stroke="#0f2035" stroke-width="1.1"/>
<text x="1265" y="232" text-anchor="middle" fill="#1e3a55" font-size="8" font-family="Courier New,monospace">UC32</text>
<text x="1265" y="243" text-anchor="middle" fill="#3a6a88" font-size="9" font-family="Courier New,monospace">Gerenciar pacientes</text>



<ellipse cx="1265" cy="264" rx="65" ry="13" fill="#050d18" stroke="#0f2035" stroke-width="1.1"/>
<text x="1265" y="260" text-anchor="middle" fill="#1e3a55" font-size="8" font-family="Courier New,monospace">UC33</text>
<text x="1265" y="271" text-anchor="middle" fill="#3a6a88" font-size="9" font-family="Courier New,monospace">Visualizar relatórios</text>



<ellipse cx="310" cy="328" rx="65" ry="13" fill="#050d18" stroke="#0f2035" stroke-width="1.1"/>
<text x="310" y="324" text-anchor="middle" fill="#1e3a55" font-size="8" font-family="Courier New,monospace">UC40</text>
<text x="310" y="335" text-anchor="middle" fill="#3a6a88" font-size="9" font-family="Courier New,monospace">Submeter log. reversa</text>



<ellipse cx="310" cy="356" rx="65" ry="13" fill="#050d18" stroke="#0f2035" stroke-width="1.1"/>
<text x="310" y="352" text-anchor="middle" fill="#1e3a55" font-size="8" font-family="Courier New,monospace">UC41</text>
<text x="310" y="363" text-anchor="middle" fill="#3a6a88" font-size="9" font-family="Courier New,monospace">Validar desconto</text>
<text x="310" y="381" text-anchor="middle" fill="#1e3a55" font-size="7.5" font-style="italic" font-family="Courier New,monospace">«extend» UC40</text>


<ellipse cx="310" cy="384" rx="65" ry="13" fill="#050d18" stroke="#0f2035" stroke-width="1.1"/>
<text x="310" y="380" text-anchor="middle" fill="#1e3a55" font-size="8" font-family="Courier New,monospace">UC42</text>
<text x="310" y="391" text-anchor="middle" fill="#3a6a88" font-size="9" font-family="Courier New,monospace">Chatbot</text>



<ellipse cx="620" cy="328" rx="65" ry="13" fill="#050d18" stroke="#0f2035" stroke-width="1.1"/>
<text x="620" y="324" text-anchor="middle" fill="#1e3a55" font-size="8" font-family="Courier New,monospace">UC50</text>
<text x="620" y="335" text-anchor="middle" fill="#3a6a88" font-size="9" font-family="Courier New,monospace">Gerenciar clínicas</text>



<ellipse cx="620" cy="356" rx="65" ry="13" fill="#050d18" stroke="#0f2035" stroke-width="1.1"/>
<text x="620" y="352" text-anchor="middle" fill="#1e3a55" font-size="8" font-family="Courier New,monospace">UC51</text>
<text x="620" y="363" text-anchor="middle" fill="#3a6a88" font-size="9" font-family="Courier New,monospace">Exportar dados (LGPD)</text>



<ellipse cx="440" cy="446" rx="65" ry="13" fill="#050d18" stroke="#0f2035" stroke-width="1.1"/>
<text x="440" y="442" text-anchor="middle" fill="#1e3a55" font-size="8" font-family="Courier New,monospace">SYS01</text>
<text x="440" y="453" text-anchor="middle" fill="#3a6a88" font-size="9" font-family="Courier New,monospace">Transmitir telemetria</text>



<ellipse cx="630" cy="446" rx="65" ry="13" fill="#050d18" stroke="#0f2035" stroke-width="1.1"/>
<text x="630" y="442" text-anchor="middle" fill="#1e3a55" font-size="8" font-family="Courier New,monospace">SYS02</text>
<text x="630" y="453" text-anchor="middle" fill="#3a6a88" font-size="9" font-family="Courier New,monospace">Detectar obstáculo YOLOv5n</text>



<ellipse cx="820" cy="446" rx="65" ry="13" fill="#050d18" stroke="#0f2035" stroke-width="1.1"/>
<text x="820" y="442" text-anchor="middle" fill="#1e3a55" font-size="8" font-family="Courier New,monospace">SYS03</text>
<text x="820" y="453" text-anchor="middle" fill="#3a6a88" font-size="9" font-family="Courier New,monospace">Monitorar carga FSR</text>



<ellipse cx="1010" cy="446" rx="65" ry="13" fill="#050d18" stroke="#0f2035" stroke-width="1.1"/>
<text x="1010" y="442" text-anchor="middle" fill="#1e3a55" font-size="8" font-family="Courier New,monospace">SYS04</text>
<text x="1010" y="453" text-anchor="middle" fill="#3a6a88" font-size="9" font-family="Courier New,monospace">Triagem hardware (LLM)</text>
<text x="1010" y="471" text-anchor="middle" fill="#1e3a55" font-size="7.5" font-style="italic" font-family="Courier New,monospace">«include» UC40</text>


<circle cx="60" cy="100" r="14" fill="none" stroke="#64748b" stroke-width="1.5"/>
<line x1="60" y1="114" x2="60" y2="138" stroke="#64748b" stroke-width="1.5" stroke-linecap="round"/>
<line x1="46" y1="124" x2="74" y2="124" stroke="#64748b" stroke-width="1.5" stroke-linecap="round"/>
<line x1="60" y1="138" x2="49" y2="154" stroke="#64748b" stroke-width="1.5" stroke-linecap="round"/>
<line x1="60" y1="138" x2="71" y2="154" stroke="#64748b" stroke-width="1.5" stroke-linecap="round"/>
<text x="60" y="168" text-anchor="middle" fill="#64748b" font-size="9.5" font-family="Courier New,monospace">Visitante</text>
<rect x="38" y="171" width="44" height="13" rx="3" fill="#64748b18" stroke="#64748b40"/>
<text x="60" y="181" text-anchor="middle" fill="#64748b" font-size="7.5" font-family="Courier New,monospace">VISITANTE</text>


<circle cx="60" cy="220" r="14" fill="none" stroke="#06b6d4" stroke-width="1.5"/>
<line x1="60" y1="234" x2="60" y2="258" stroke="#06b6d4" stroke-width="1.5" stroke-linecap="round"/>
<line x1="46" y1="244" x2="74" y2="244" stroke="#06b6d4" stroke-width="1.5" stroke-linecap="round"/>
<line x1="60" y1="258" x2="49" y2="274" stroke="#06b6d4" stroke-width="1.5" stroke-linecap="round"/>
<line x1="60" y1="258" x2="71" y2="274" stroke="#06b6d4" stroke-width="1.5" stroke-linecap="round"/>
<text x="60" y="288" text-anchor="middle" fill="#06b6d4" font-size="9.5" font-family="Courier New,monospace">Família</text>
<rect x="38" y="291" width="44" height="13" rx="3" fill="#06b6d418" stroke="#06b6d440"/>
<text x="60" y="301" text-anchor="middle" fill="#06b6d4" font-size="7.5" font-family="Courier New,monospace">FAMILIA</text>


<circle cx="60" cy="340" r="14" fill="none" stroke="#10b981" stroke-width="1.5"/>
<line x1="60" y1="354" x2="60" y2="378" stroke="#10b981" stroke-width="1.5" stroke-linecap="round"/>
<line x1="46" y1="364" x2="74" y2="364" stroke="#10b981" stroke-width="1.5" stroke-linecap="round"/>
<line x1="60" y1="378" x2="49" y2="394" stroke="#10b981" stroke-width="1.5" stroke-linecap="round"/>
<line x1="60" y1="378" x2="71" y2="394" stroke="#10b981" stroke-width="1.5" stroke-linecap="round"/>
<text x="60" y="408" text-anchor="middle" fill="#10b981" font-size="9.5" font-family="Courier New,monospace">Operador</text>
<rect x="38" y="411" width="44" height="13" rx="3" fill="#10b98118" stroke="#10b98140"/>
<text x="60" y="421" text-anchor="middle" fill="#10b981" font-size="7.5" font-family="Courier New,monospace">OPERADOR</text>


<circle cx="60" cy="460" r="14" fill="none" stroke="#f59e0b" stroke-width="1.5"/>
<line x1="60" y1="474" x2="60" y2="498" stroke="#f59e0b" stroke-width="1.5" stroke-linecap="round"/>
<line x1="46" y1="484" x2="74" y2="484" stroke="#f59e0b" stroke-width="1.5" stroke-linecap="round"/>
<line x1="60" y1="498" x2="49" y2="514" stroke="#f59e0b" stroke-width="1.5" stroke-linecap="round"/>
<line x1="60" y1="498" x2="71" y2="514" stroke="#f59e0b" stroke-width="1.5" stroke-linecap="round"/>
<text x="60" y="528" text-anchor="middle" fill="#f59e0b" font-size="9.5" font-family="Courier New,monospace">Admin</text>
<rect x="38" y="531" width="44" height="13" rx="3" fill="#f59e0b18" stroke="#f59e0b40"/>
<text x="60" y="541" text-anchor="middle" fill="#f59e0b" font-size="7.5" font-family="Courier New,monospace">ADMIN</text>


<circle cx="60" cy="570" r="14" fill="none" stroke="#ef4444" stroke-width="1.5"/>
<line x1="60" y1="584" x2="60" y2="608" stroke="#ef4444" stroke-width="1.5" stroke-linecap="round"/>
<line x1="46" y1="594" x2="74" y2="594" stroke="#ef4444" stroke-width="1.5" stroke-linecap="round"/>
<line x1="60" y1="608" x2="49" y2="624" stroke="#ef4444" stroke-width="1.5" stroke-linecap="round"/>
<line x1="60" y1="608" x2="71" y2="624" stroke="#ef4444" stroke-width="1.5" stroke-linecap="round"/>
<text x="60" y="638" text-anchor="middle" fill="#ef4444" font-size="9.5" font-family="Courier New,monospace">Super Admin</text>
<rect x="38" y="641" width="44" height="13" rx="3" fill="#ef444418" stroke="#ef444440"/>
<text x="60" y="651" text-anchor="middle" fill="#ef4444" font-size="7.5" font-family="Courier New,monospace">SUPER_ADMIN</text>


<circle cx="1490" cy="200" r="14" fill="none" stroke="#8b5cf6" stroke-width="1.5"/>
<line x1="1490" y1="214" x2="1490" y2="238" stroke="#8b5cf6" stroke-width="1.5" stroke-linecap="round"/>
<line x1="1476" y1="224" x2="1504" y2="224" stroke="#8b5cf6" stroke-width="1.5" stroke-linecap="round"/>
<line x1="1490" y1="238" x2="1479" y2="254" stroke="#8b5cf6" stroke-width="1.5" stroke-linecap="round"/>
<line x1="1490" y1="238" x2="1501" y2="254" stroke="#8b5cf6" stroke-width="1.5" stroke-linecap="round"/>
<text x="1490" y="268" text-anchor="middle" fill="#8b5cf6" font-size="9.5" font-family="Courier New,monospace">Hardware IoT</text>
<rect x="1468" y="271" width="44" height="13" rx="3" fill="#8b5cf618" stroke="#8b5cf640"/>
<text x="1490" y="281" text-anchor="middle" fill="#8b5cf6" font-size="7.5" font-family="Courier New,monospace">ESP32/RPi</text>


<circle cx="1490" cy="370" r="14" fill="none" stroke="#ec4899" stroke-width="1.5"/>
<line x1="1490" y1="384" x2="1490" y2="408" stroke="#ec4899" stroke-width="1.5" stroke-linecap="round"/>
<line x1="1476" y1="394" x2="1504" y2="394" stroke="#ec4899" stroke-width="1.5" stroke-linecap="round"/>
<line x1="1490" y1="408" x2="1479" y2="424" stroke="#ec4899" stroke-width="1.5" stroke-linecap="round"/>
<line x1="1490" y1="408" x2="1501" y2="424" stroke="#ec4899" stroke-width="1.5" stroke-linecap="round"/>
<text x="1490" y="438" text-anchor="middle" fill="#ec4899" font-size="9.5" font-family="Courier New,monospace">Sistema IA</text>
<rect x="1468" y="441" width="44" height="13" rx="3" fill="#ec489918" stroke="#ec489940"/>
<text x="1490" y="451" text-anchor="middle" fill="#ec4899" font-size="7.5" font-family="Courier New,monospace">TFLite/LLM</text>

<line x1="60" y1="114" x2="310" y2="180" stroke="#64748b" stroke-width="0.8" opacity="0.35"/>
<line x1="60" y1="114" x2="310" y2="208" stroke="#64748b" stroke-width="0.8" opacity="0.35"/>
<line x1="60" y1="114" x2="310" y2="328" stroke="#64748b" stroke-width="0.8" opacity="0.35"/>
<line x1="60" y1="234" x2="620" y2="180" stroke="#06b6d4" stroke-width="0.8" opacity="0.35"/>
<line x1="60" y1="234" x2="620" y2="208" stroke="#06b6d4" stroke-width="0.8" opacity="0.35"/>
<line x1="60" y1="234" x2="620" y2="236" stroke="#06b6d4" stroke-width="0.8" opacity="0.35"/>
<line x1="60" y1="234" x2="620" y2="264" stroke="#06b6d4" stroke-width="0.8" opacity="0.35"/>
<line x1="60" y1="234" x2="620" y2="292" stroke="#06b6d4" stroke-width="0.8" opacity="0.35"/>
<line x1="60" y1="234" x2="935" y2="236" stroke="#06b6d4" stroke-width="0.8" opacity="0.35"/>
<line x1="60" y1="234" x2="935" y2="264" stroke="#06b6d4" stroke-width="0.8" opacity="0.35"/>
<line x1="60" y1="234" x2="310" y2="328" stroke="#06b6d4" stroke-width="0.8" opacity="0.35"/>
<line x1="60" y1="234" x2="310" y2="384" stroke="#06b6d4" stroke-width="0.8" opacity="0.35"/>
<line x1="60" y1="354" x2="620" y2="180" stroke="#10b981" stroke-width="0.8" opacity="0.35"/>
<line x1="60" y1="354" x2="620" y2="208" stroke="#10b981" stroke-width="0.8" opacity="0.35"/>
<line x1="60" y1="354" x2="620" y2="236" stroke="#10b981" stroke-width="0.8" opacity="0.35"/>
<line x1="60" y1="354" x2="620" y2="264" stroke="#10b981" stroke-width="0.8" opacity="0.35"/>
<line x1="60" y1="354" x2="620" y2="292" stroke="#10b981" stroke-width="0.8" opacity="0.35"/>
<line x1="60" y1="354" x2="935" y2="180" stroke="#10b981" stroke-width="0.8" opacity="0.35"/>
<line x1="60" y1="354" x2="935" y2="208" stroke="#10b981" stroke-width="0.8" opacity="0.35"/>
<line x1="60" y1="354" x2="935" y2="236" stroke="#10b981" stroke-width="0.8" opacity="0.35"/>
<line x1="60" y1="354" x2="935" y2="264" stroke="#10b981" stroke-width="0.8" opacity="0.35"/>
<line x1="60" y1="354" x2="935" y2="292" stroke="#10b981" stroke-width="0.8" opacity="0.35"/>
<line x1="60" y1="354" x2="1265" y2="236" stroke="#10b981" stroke-width="0.8" opacity="0.35"/>
<line x1="60" y1="354" x2="1265" y2="264" stroke="#10b981" stroke-width="0.8" opacity="0.35"/>
<line x1="60" y1="354" x2="310" y2="384" stroke="#10b981" stroke-width="0.8" opacity="0.35"/>
<line x1="60" y1="474" x2="620" y2="264" stroke="#f59e0b" stroke-width="0.8" opacity="0.35"/>
<line x1="60" y1="474" x2="935" y2="236" stroke="#f59e0b" stroke-width="0.8" opacity="0.35"/>
<line x1="60" y1="474" x2="935" y2="292" stroke="#f59e0b" stroke-width="0.8" opacity="0.35"/>
<line x1="60" y1="474" x2="1265" y2="180" stroke="#f59e0b" stroke-width="0.8" opacity="0.35"/>
<line x1="60" y1="474" x2="1265" y2="208" stroke="#f59e0b" stroke-width="0.8" opacity="0.35"/>
<line x1="60" y1="474" x2="1265" y2="236" stroke="#f59e0b" stroke-width="0.8" opacity="0.35"/>
<line x1="60" y1="474" x2="1265" y2="264" stroke="#f59e0b" stroke-width="0.8" opacity="0.35"/>
<line x1="60" y1="474" x2="310" y2="328" stroke="#f59e0b" stroke-width="0.8" opacity="0.35"/>
<line x1="60" y1="474" x2="310" y2="356" stroke="#f59e0b" stroke-width="0.8" opacity="0.35"/>
<line x1="60" y1="474" x2="310" y2="384" stroke="#f59e0b" stroke-width="0.8" opacity="0.35"/>
<line x1="60" y1="474" x2="620" y2="356" stroke="#f59e0b" stroke-width="0.8" opacity="0.35"/>
<line x1="60" y1="584" x2="620" y2="264" stroke="#ef4444" stroke-width="0.8" opacity="0.35"/>
<line x1="60" y1="584" x2="935" y2="236" stroke="#ef4444" stroke-width="0.8" opacity="0.35"/>
<line x1="60" y1="584" x2="1265" y2="180" stroke="#ef4444" stroke-width="0.8" opacity="0.35"/>
<line x1="60" y1="584" x2="1265" y2="208" stroke="#ef4444" stroke-width="0.8" opacity="0.35"/>
<line x1="60" y1="584" x2="620" y2="328" stroke="#ef4444" stroke-width="0.8" opacity="0.35"/>
<line x1="60" y1="584" x2="620" y2="356" stroke="#ef4444" stroke-width="0.8" opacity="0.35"/>
<line x1="1490" y1="214" x2="440" y2="446" stroke="#8b5cf6" stroke-width="0.8" opacity="0.35"/>
<line x1="1490" y1="214" x2="620" y2="264" stroke="#8b5cf6" stroke-width="0.8" opacity="0.35"/>
<line x1="1490" y1="384" x2="630" y2="446" stroke="#ec4899" stroke-width="0.8" opacity="0.35"/>
<line x1="1490" y1="384" x2="820" y2="446" stroke="#ec4899" stroke-width="0.8" opacity="0.35"/>
<rect x="0" y="1016" width="1600" height="44" fill="#050a12"/>
<rect x="0" y="1016" width="1600" height="1" fill="#1a3a55"/>
<circle cx="29" cy="1034" r="5" fill="#64748b"/>
<text x="38" y="1038" fill="#2e5c7a" font-size="9" font-family="Courier New,monospace">Visitante</text>
<circle cx="122" cy="1034" r="5" fill="#06b6d4"/>
<text x="131" y="1038" fill="#2e5c7a" font-size="9" font-family="Courier New,monospace">Família</text>
<circle cx="201" cy="1034" r="5" fill="#10b981"/>
<text x="210" y="1038" fill="#2e5c7a" font-size="9" font-family="Courier New,monospace">Operador</text>
<circle cx="287" cy="1034" r="5" fill="#f59e0b"/>
<text x="296" y="1038" fill="#2e5c7a" font-size="9" font-family="Courier New,monospace">Admin</text>
<circle cx="352" cy="1034" r="5" fill="#ef4444"/>
<text x="361" y="1038" fill="#2e5c7a" font-size="9" font-family="Courier New,monospace">Super Admin</text>
<circle cx="459" cy="1034" r="5" fill="#8b5cf6"/>
<text x="468" y="1038" fill="#2e5c7a" font-size="9" font-family="Courier New,monospace">Hardware</text>
<circle cx="545" cy="1034" r="5" fill="#ec4899"/>
<text x="554" y="1038" fill="#2e5c7a" font-size="9" font-family="Courier New,monospace">Sistema IA</text>
<text x="650" y="1038" fill="#1e3a55" font-size="8.5" font-style="italic" font-family="Courier New,monospace">«include»</text>
<text x="710" y="1038" fill="#1e3a55" font-size="8.5" font-family="Courier New,monospace">= relação obrigatória</text>
<text x="830" y="1038" fill="#1e3a55" font-size="8.5" font-style="italic" font-family="Courier New,monospace">«extend»</text>
<text x="880" y="1038" fill="#1e3a55" font-size="8.5" font-family="Courier New,monospace">= extensão condicional</text>
<text x="1580" y="1038" text-anchor="end" fill="#0fd1b530" font-size="9" font-family="Courier New,monospace">EverRise Medical Solutions — UC v5.0</text>
</svg>